<!--?xml version="1.0" encoding="utf-8"?-->
<!-- Generator: Adobe Illustrator 16.0.0, SVG Export Plug-In . SVG Version: 6.00 Build 0)  -->

<svg version="1.1" id="圖層_1" xmlns="http://www.w3.org/2000/svg" xmlns:xlink="http://www.w3.org/1999/xlink" x="0px" y="0px" width="841.89px" height="595.28px" viewBox="0 0 841.89 595.28" enable-background="new 0 0 841.89 595.28" xml:space="preserve" style="">
<g>
	<path stroke="#E94619" stroke-width="3" stroke-miterlimit="10" d="M202.131,122.549c0-5.407-6.239-6.031-15.597-5.823v-6.447
		c7.487,0,16.221-2.911,26.204-8.526v73.203c2.08-2.911,4.367-5.615,7.486-7.902c7.903-7.071,17.677-10.398,29.531-10.398
		c17.469,0,26.619,9.982,26.619,25.58v58.645l1.04,5.823c0.416,1.248,1.872,1.872,3.951,1.872h13.31v6.447h-46.583v-6.447h10.19
		c6.655,0,7.487-3.743,7.487-7.695v-58.645c0-7.903-4.783-19.132-19.964-19.132c-11.23,0-29.531,8.318-33.066,24.955v52.822
		c0,2.912,0,7.695,5.615,7.695h9.774v6.447h-41.8v-6.447h9.982c3.535,0,5.823-1.664,5.823-7.695V122.549z" class="yEZZxRZC_0"></path>
	<path stroke="#E94619" stroke-width="3" stroke-miterlimit="10" d="M317.129,203.03v4.783c0,23.084,16.013,44.712,37.018,44.712
		c16.013,0,24.955-10.814,34.521-23.916l5.407,3.743c-16.429,21.004-25.164,26.619-42.009,26.619
		c-32.026,0-45.543-28.283-45.543-51.159c0-32.65,21.628-53.654,43.464-53.654c22.876,0,41.801,19.548,41.801,48.871H317.129z
		 M380.973,196.583c-0.832-12.27-3.743-21.42-9.358-27.243c-5.407-5.823-12.478-8.734-21.628-8.734
		c-15.805,0-29.322,14.765-32.442,35.977H380.973z" class="yEZZxRZC_1"></path>
	<path stroke="#E94619" stroke-width="3" stroke-miterlimit="10" d="M428.591,122.549c0-2.08-0.208-3.536-1.248-4.367
		c-1.039-1.04-6.03-1.456-14.557-1.456v-6.447c7.487,0,16.429-2.911,26.412-8.526v137.671c0,4.783,1.039,9.15,7.278,9.15h13.726
		v6.447h-52.406v-6.447h12.27c8.318,0,8.526-5.407,8.526-9.15V122.549z" class="yEZZxRZC_2"></path>
	<path stroke="#E94619" stroke-width="3" stroke-miterlimit="10" d="M494.511,122.549c0-2.08-0.208-3.536-1.248-4.367
		c-1.04-1.04-6.031-1.456-14.558-1.456v-6.447c7.486,0,16.429-2.911,26.411-8.526v137.671c0,4.783,1.04,9.15,7.279,9.15h13.726
		v6.447h-52.407v-6.447h12.271c8.318,0,8.526-5.407,8.526-9.15V122.549z" class="yEZZxRZC_3"></path>
	<path stroke="#E94619" stroke-width="3" stroke-miterlimit="10" d="M588.296,259.388c-34.729,0-47.207-29.531-47.207-51.783
		c0-39.929,28.491-54.07,47.207-54.07c23.708,0,45.96,17.677,45.96,54.07C634.256,230.689,621.154,259.388,588.296,259.388z
		 M613.044,171.628c-6.447-7.487-14.766-11.438-24.748-11.438c-10.189,0-18.716,3.951-25.787,11.646
		c-6.654,7.486-9.774,19.548-9.774,35.769c0,15.182,5.615,45.128,35.562,45.128c27.243,0,34.106-27.659,34.106-45.128
		C622.402,191.176,619.282,179.114,613.044,171.628z" class="yEZZxRZC_4"></path>
</g>
<style data-made-with="vivus-instant">.yEZZxRZC_0{stroke-dasharray:778 780;stroke-dashoffset:779;animation:yEZZxRZC_draw 1466ms ease 0ms forwards;}.yEZZxRZC_1{stroke-dasharray:641 643;stroke-dashoffset:642;animation:yEZZxRZC_draw 1466ms ease 183ms forwards;}.yEZZxRZC_2{stroke-dasharray:428 430;stroke-dashoffset:429;animation:yEZZxRZC_draw 1466ms ease 366ms forwards;}.yEZZxRZC_3{stroke-dasharray:428 430;stroke-dashoffset:429;animation:yEZZxRZC_draw 1466ms ease 550ms forwards;}.yEZZxRZC_4{stroke-dasharray:578 580;stroke-dashoffset:579;animation:yEZZxRZC_draw 1466ms ease 733ms forwards;}@keyframes yEZZxRZC_draw{100%{stroke-dashoffset:0;}}@keyframes yEZZxRZC_fade{0%{stroke-opacity:1;}93.75%{stroke-opacity:1;}100%{stroke-opacity:0;}}</style></svg>
