<!--?xml version="1.0" encoding="utf-8"?-->
<!-- Generator: Adobe Illustrator 16.0.0, SVG Export Plug-In . SVG Version: 6.00 Build 0)  -->

<svg version="1.1" id="圖層_1" xmlns="http://www.w3.org/2000/svg" xmlns:xlink="http://www.w3.org/1999/xlink" x="0px" y="0px" width="841.89px" height="595.28px" viewBox="0 0 841.89 595.28" enable-background="new 0 0 841.89 595.28" xml:space="preserve" style="">
<g>
	<path fill="#EAE83A" stroke="#7F4F21" stroke-width="3" stroke-miterlimit="10" d="M246.04,301.808h-2.769l-18.411-49.281
		l-14.535,48.311h-2.492l-22.287-56.34c-0.831-3.737-4.43-3.737-8.721-3.737v-4.292h23.81v4.292c-5.122,0-8.306,0-8.306,2.769
		c0,0.276,0.139,0.554,0.277,0.969l17.026,44.158l12.735-42.774v-0.277h0.139c0.138-0.831,0.276-1.522,0.276-2.076
		c0-2.077-1.522-2.769-3.737-2.769h-5.537v-4.292h23.81v4.292c-5.398,0-8.306,0-8.306,2.907c0,0.554,0.139,1.246,0.415,1.938
		l15.919,43.189l14.535-43.743c0.139-0.554,0.277-0.969,0.277-1.384c0-2.215-1.523-2.907-3.6-2.907h-5.26v-4.292h23.532v4.292
		c-6.367,0-9.413,0-10.521,4.291L246.04,301.808z" class="pcGJHPUd_0"></path>
	<path fill="#EAE83A" stroke="#7F4F21" stroke-width="3" stroke-miterlimit="10" d="M290.478,266.231v3.184
		c0,15.365,10.659,29.762,24.64,29.762c10.659,0,16.611-7.198,22.979-15.919l3.599,2.492c-10.936,13.981-16.75,17.719-27.962,17.719
		c-21.318,0-30.315-18.827-30.315-34.054c0-21.733,14.396-35.714,28.931-35.714c15.227,0,27.824,13.012,27.824,32.531H290.478z
		 M332.975,261.94c-0.554-8.167-2.491-14.258-6.229-18.134c-3.599-3.876-8.306-5.813-14.396-5.813
		c-10.521,0-19.518,9.828-21.595,23.948H332.975z" class="pcGJHPUd_1"></path>
	<path fill="#EAE83A" stroke="#7F4F21" stroke-width="3" stroke-miterlimit="10" d="M364.676,212.66
		c0-1.384-0.139-2.353-0.831-2.907c-0.691-0.692-4.014-0.969-9.689-0.969v-4.292c4.983,0,10.936-1.938,17.58-5.675v91.639
		c0,3.184,0.692,6.091,4.846,6.091h9.136v4.291h-34.884v-4.291H359c5.537,0,5.676-3.599,5.676-6.091V212.66z" class="pcGJHPUd_2"></path>
	<path fill="#EAE83A" stroke="#7F4F21" stroke-width="3" stroke-miterlimit="10" d="M453.963,285.611
		c-8.167,12.458-15.919,17.995-27.132,17.995c-18.827,0-31.147-14.673-31.147-35.576c0-22.564,16.889-34.192,33.362-34.192
		c10.382,0,22.287,7.198,22.287,18.688c0,1.799-1.107,4.014-4.568,4.014c-2.076,0-4.43-1.246-4.43-4.152
		c0.139-0.554,0.415-3.461,0.554-4.153c0-3.46-4.568-10.105-13.843-10.105c-11.767,0-25.471,9.829-25.471,27.686
		c0,28.516,18.411,32.807,25.056,32.807c8.859,0,14.673-5.26,21.732-15.504L453.963,285.611z" class="pcGJHPUd_3"></path>
	<path fill="#EAE83A" stroke="#7F4F21" stroke-width="3" stroke-miterlimit="10" d="M496.602,303.745
		c-23.118,0-31.424-19.657-31.424-34.469c0-26.578,18.965-35.991,31.424-35.991c15.78,0,30.592,11.767,30.592,35.991
		C527.193,284.642,518.473,303.745,496.602,303.745z M513.074,245.329c-4.291-4.983-9.828-7.614-16.473-7.614
		c-6.783,0-12.459,2.63-17.166,7.752c-4.43,4.983-6.506,13.013-6.506,23.81c0,10.105,3.738,30.039,23.672,30.039
		c18.134,0,22.701-18.411,22.701-30.039C519.303,258.341,517.227,250.312,513.074,245.329z" class="pcGJHPUd_4"></path>
	<path fill="#EAE83A" stroke="#7F4F21" stroke-width="3" stroke-miterlimit="10" d="M546.021,248.513
		c0-3.738-4.152-3.876-10.659-3.876v-4.292c4.983,0,10.937-1.661,17.719-4.983v10.382c4.983-6.229,8.444-10.382,17.581-10.382
		c5.813,0,10.243,1.938,13.565,6.229c0.969,1.385,1.8,3.184,2.491,5.399c2.631-4.707,8.859-11.628,19.934-11.628
		c9.552,0,16.75,6.645,16.75,19.103v36.822c0,3.322,1.8,5.26,5.122,5.26h4.845v4.291h-26.854v-4.291h5.398
		c2.769,0,4.43-1.938,4.43-5.26v-36.822c0-9.274-4.568-14.812-11.489-14.812c-5.953,0-14.95,5.122-16.889,13.15v38.621
		c0,3.461,1.8,5.122,5.122,5.122h4.706v4.291h-27.27v-4.291h5.813c2.215,0,4.568-1.938,4.568-5.122v-36.268
		c0-7.476-2.63-15.504-12.043-15.504c-5.261,0-13.843,4.291-15.781,14.396v37.514c0,3.322,1.8,4.983,4.568,4.983h5.261v4.291
		h-27.409v-4.291h4.153c2.353,0,6.367-0.692,6.367-4.983V248.513z" class="pcGJHPUd_5"></path>
	<path fill="#EAE83A" stroke="#7F4F21" stroke-width="3" stroke-miterlimit="10" d="M648.461,266.231v3.184
		c0,15.365,10.659,29.762,24.641,29.762c10.659,0,16.611-7.198,22.979-15.919l3.6,2.492c-10.936,13.981-16.75,17.719-27.963,17.719
		c-21.317,0-30.315-18.827-30.315-34.054c0-21.733,14.396-35.714,28.932-35.714c15.228,0,27.824,13.012,27.824,32.531H648.461z
		 M690.959,261.94c-0.554-8.167-2.492-14.258-6.229-18.134c-3.599-3.876-8.306-5.813-14.396-5.813
		c-10.521,0-19.519,9.828-21.595,23.948H690.959z" class="pcGJHPUd_6"></path>
</g>
<style data-made-with="vivus-instant">.pcGJHPUd_0{stroke-dasharray:581 583;stroke-dashoffset:582;animation:pcGJHPUd_draw 2000ms linear 0ms forwards;}.pcGJHPUd_1{stroke-dasharray:427 429;stroke-dashoffset:428;animation:pcGJHPUd_draw 2000ms linear 166ms forwards;}.pcGJHPUd_2{stroke-dasharray:285 287;stroke-dashoffset:286;animation:pcGJHPUd_draw 2000ms linear 333ms forwards;}.pcGJHPUd_3{stroke-dasharray:330 332;stroke-dashoffset:331;animation:pcGJHPUd_draw 2000ms linear 500ms forwards;}.pcGJHPUd_4{stroke-dasharray:385 387;stroke-dashoffset:386;animation:pcGJHPUd_draw 2000ms linear 666ms forwards;}.pcGJHPUd_5{stroke-dasharray:647 649;stroke-dashoffset:648;animation:pcGJHPUd_draw 2000ms linear 833ms forwards;}.pcGJHPUd_6{stroke-dasharray:427 429;stroke-dashoffset:428;animation:pcGJHPUd_draw 2000ms linear 1000ms forwards;}@keyframes pcGJHPUd_draw{100%{stroke-dashoffset:0;}}@keyframes pcGJHPUd_fade{0%{stroke-opacity:1;}94.44444444444444%{stroke-opacity:1;}100%{stroke-opacity:0;}}</style></svg>
