<?xml version="1.0" encoding="utf-8"?>
<!-- Generator: Adobe Illustrator 16.0.0, SVG Export Plug-In . SVG Version: 6.00 Build 0)  -->
<!DOCTYPE svg PUBLIC "-//W3C//DTD SVG 1.1//EN" "http://www.w3.org/Graphics/SVG/1.1/DTD/svg11.dtd">
<svg version="1.1" id="圖層_1" xmlns="http://www.w3.org/2000/svg" xmlns:xlink="http://www.w3.org/1999/xlink" x="0px" y="0px"
	 width="841.891px" height="595.279px" viewBox="0 0 841.891 595.279" enable-background="new 0 0 841.891 595.279"
	 xml:space="preserve">
<g>
	<g>
		<path fill="#FFF100" stroke="#DB2018" stroke-miterlimit="10" d="M57.515,297.01v-4.971h4.856c0.229,0,0.446,0,0.446-0.496V279.02
			h-16.18v12.523c0,0.309,0,0.496,0.8,0.496h4.245v4.971H35.55v-4.971h4.549c0.599,0,0.599-0.323,0.599-0.496v-29.305
			c0-0.852-0.244-0.852-0.649-0.852H35.6v-4.972h16.082v4.972h-4.245c-0.659,0-0.8,0.073-0.8,0.852v11.81h16.18v-12.064
			c0-0.528-0.13-0.597-0.649-0.597h-4.652v-4.972h16.541v4.972H69.71c-0.903,0-0.903,0.188-0.903,0.597v29.56
			c0,0.299,0,0.496,0.852,0.496h4.397v4.971H57.515z"/>
		<path fill="#ED6B1A" stroke="#DB2018" stroke-miterlimit="10" d="M72.36,258.108v1.58h-2.65c-1.835,0-2.599,0.918-2.599,2.294
			v29.56c0,1.325,0.815,2.191,2.548,2.191h2.701v1.58H59.21v-1.58h3.161c1.375,0,2.142-0.968,2.142-2.191v-14.219H44.941v14.219
			c0,1.938,1.631,2.191,2.496,2.191h2.549v1.58H37.245v-1.58h2.854c1.223,0,2.294-0.765,2.294-2.191v-29.305
			c0-1.989-1.223-2.549-2.345-2.549h-2.752v-1.58h12.69v1.58h-2.549c-1.477,0-2.496,0.714-2.496,2.549v13.505h19.571v-13.76
			c0-0.917-0.409-2.294-2.345-2.294h-2.957v-1.58H72.36 M75.751,254.716H72.36H59.21h-3.391v3.392v1.58v3.391h3.391h1.91v9.272
			H48.331v-9.272h1.654h3.391v-3.391v-1.58v-3.392h-3.391h-12.69h-3.391v3.392v1.58v3.391h3.391H39v27.264h-1.756h-3.391v3.391v1.58
			v3.392h3.391h12.741h3.391v-3.392v-1.58v-3.391h-3.391h-1.654v-9.629H61.12v9.629h-1.91h-3.391v3.391v1.58v3.392h3.391H72.36
			h3.391v-3.392v-1.58v-3.391H72.36h-1.858v-27.264h1.858h3.391v-3.391v-1.58V254.716L75.751,254.716z"/>
	</g>
	<g>
		<path fill="#FFF100" stroke="#DB2018" stroke-miterlimit="10" d="M86.934,297.977c-8.44,0-12.857-7.16-12.857-14.232
			c0-9.293,6.278-14.845,12.347-14.845c6.807,0,11.939,5.878,11.939,13.671v1.696H80.079c0.224,4.789,3.506,8.739,7.365,8.739
			c3.082,0,4.882-2.143,7.09-5.166l0.975-1.335l4.163,2.882l-1.106,1.416C94.683,295.763,92.083,297.977,86.934,297.977z
			 M92.12,279.297c-0.292-1.731-0.826-2.986-1.616-3.804c-1.036-1.115-2.326-1.623-4.082-1.623c-2.529,0-4.796,2.19-5.827,5.426
			L92.12,279.297L92.12,279.297z"/>
		<path fill="#ED6B1A" stroke="#DB2018" stroke-miterlimit="10" d="M86.423,270.594c5.607,0,10.244,4.791,10.244,11.976H78.37v1.174
			c0,5.657,3.924,10.957,9.072,10.957c3.924,0,6.116-2.65,8.46-5.863l1.325,0.918c-4.026,5.147-6.167,6.523-10.295,6.523
			c-7.85,0-11.162-6.931-11.162-12.537C75.773,275.741,81.072,270.594,86.423,270.594 M78.473,280.992h15.545
			c-0.205-3.007-0.917-5.251-2.294-6.677c-1.325-1.427-3.057-2.14-5.3-2.14C82.551,272.176,79.237,275.793,78.473,280.992
			 M86.423,267.203c-6.902,0-14.042,6.188-14.042,16.541c0,7.915,4.999,15.928,14.553,15.928c5.82,0,8.819-2.522,12.966-7.825
			l2.214-2.832l-2.956-2.047l-1.325-0.918l-0.129-0.089h2.354v-3.391C100.058,273.81,94.197,267.203,86.423,267.203L86.423,267.203z
			 M83.268,277.601c0.858-1.26,1.984-2.035,3.156-2.035c1.616,0,2.33,0.534,2.816,1.057l0.021,0.024l0.023,0.022
			c0.226,0.235,0.427,0.548,0.601,0.932H83.268L83.268,277.601z M82.033,285.962h11.773l-0.641,0.878
			c-2.302,3.152-3.605,4.47-5.722,4.47C84.99,291.311,82.782,288.989,82.033,285.962L82.033,285.962z"/>
	</g>
	<g>
		<path fill="#FFF100" stroke="#DB2018" stroke-miterlimit="10" d="M98.896,297.01v-4.971h4.703c0.18,0,0.298-0.017,0.369-0.03
			c0.025-0.159,0.025-0.418,0.025-0.517v-28.312c-0.417-0.034-1.094-0.064-2.178-0.064h-1.695v-4.97h1.695
			c1.514,0,3.464-0.647,5.641-1.872l2.527-1.421v36.638c0,0.272,0.018,0.444,0.038,0.545c0.015,0.001,5.11,0.001,5.11,0.001v4.971
			H98.896z"/>
		<path fill="#ED6B1A" stroke="#DB2018" stroke-miterlimit="10" d="M108.287,257.751v33.741c0,1.173,0.254,2.242,1.784,2.242h3.363
			v1.58h-12.843v-1.58h3.007c2.039,0,2.089-1.326,2.089-2.242v-28.643c0-0.51-0.051-0.867-0.307-1.071
			c-0.254-0.255-1.478-0.358-3.567-0.358v-1.579C103.65,259.841,105.841,259.128,108.287,257.751 M111.678,251.954l-5.052,2.841
			c-1.896,1.066-3.606,1.654-4.811,1.654h-3.391v3.391v1.579v3.391h3.391c0.171,0,0.333,0,0.482,0.002v25.528h-1.704h-3.391v3.391
			v1.58v3.392h3.391h12.842h3.391v-3.392v-1.58v-3.391h-3.391h-1.756v-32.59v-5.796H111.678z"/>
	</g>
	<g>
		<path fill="#FFF100" stroke="#DB2018" stroke-miterlimit="10" d="M115.051,297.01v-4.971h4.703c0.179,0,0.297-0.017,0.368-0.03
			c0.025-0.159,0.025-0.418,0.025-0.517v-28.312c-0.417-0.034-1.093-0.064-2.177-0.064h-1.695v-4.97h1.695
			c1.514,0,3.463-0.648,5.642-1.872l2.527-1.42v36.638c0,0.273,0.019,0.444,0.038,0.545c0.016,0.001,5.11,0.001,5.11,0.001v4.971
			h-16.235V297.01z"/>
		<path fill="#ED6B1A" stroke="#DB2018" stroke-miterlimit="10" d="M124.442,257.751v33.741c0,1.173,0.255,2.242,1.784,2.242h3.363
			v1.58h-12.842v-1.58h3.007c2.039,0,2.088-1.326,2.088-2.242v-28.643c0-0.51-0.049-0.867-0.307-1.071
			c-0.254-0.255-1.478-0.358-3.567-0.358v-1.579C119.804,259.841,121.995,259.128,124.442,257.751 M127.834,251.954l-5.053,2.841
			c-1.896,1.066-3.606,1.654-4.811,1.654h-3.391v3.391v1.579v3.391h3.391c0.171,0,0.332,0,0.481,0.002v25.528h-1.704h-3.391v3.391
			v1.58v3.392h3.391h12.842h3.392v-3.392v-1.58v-3.391h-3.392h-1.756v-32.59V251.954L127.834,251.954z"/>
	</g>
	<g>
		<path fill="#FFF100" stroke="#DB2018" stroke-miterlimit="10" d="M144.828,298.079c-9.115,0-13.266-7.458-13.266-14.387
			c0-10.966,7.934-14.946,13.266-14.946c6.24,0,12.958,4.677,12.958,14.946C157.786,290.844,153.336,298.079,144.828,298.079z
			 M144.828,273.768c-1.987,0-3.647,0.754-5.072,2.306c-1.286,1.447-1.948,4.019-1.948,7.619c0,2.197,0.506,9.364,7.02,9.364
			c6.342,0,6.662-7.8,6.662-9.364c0-3.618-0.639-6.218-1.9-7.73C148.325,274.492,146.761,273.768,144.828,273.768z"/>
		<path fill="#ED6B1A" stroke="#DB2018" stroke-miterlimit="10" d="M144.828,270.442c5.81,0,11.263,4.332,11.263,13.251
			c0,5.657-3.211,12.692-11.263,12.692c-8.512,0-11.57-7.238-11.57-12.692C133.257,273.907,140.241,270.442,144.828,270.442
			 M144.828,294.753c6.676,0,8.357-6.778,8.357-11.06c0-4.026-0.764-6.982-2.292-8.817c-1.58-1.836-3.619-2.804-6.065-2.804
			c-2.497,0-4.586,0.968-6.32,2.854c-1.631,1.835-2.396,4.792-2.396,8.766C136.112,287.413,137.488,294.753,144.828,294.753
			 M144.828,267.051c-7.252,0-14.961,5.833-14.961,16.643c0,7.747,4.683,16.082,14.961,16.082c9.621,0,14.654-8.089,14.654-16.082
			C159.482,272.258,151.886,267.051,144.828,267.051L144.828,267.051z M141.025,277.198c1.11-1.199,2.285-1.735,3.803-1.735
			c1.43,0,2.54,0.517,3.494,1.625c0.938,1.125,1.473,3.485,1.473,6.604c0,1.799-0.357,7.669-4.966,7.669
			c-4.805,0-5.324-5.363-5.324-7.669C139.503,279.774,140.326,277.997,141.025,277.198L141.025,277.198z"/>
	</g>
	<g>
		<path fill="#FFF100" stroke="#DB2018" stroke-miterlimit="10" d="M192.121,298.028c-2.32,0-3.478-1.207-4.073-2.581
			c-2.454,1.714-5.298,2.581-8.465,2.581c-3.964,0-7.963-2.416-7.963-7.81c0-2.606,1.096-4.772,3.259-6.44
			c2.413-1.835,6.384-3.133,12.438-4.05v-1.895c0-2.34-2.312-3.911-4.472-3.911c-2.684,0-3.648,1.528-3.715,1.81l0.004,0.366
			c0.181,1.162-0.026,2.11-0.622,2.822c-0.407,0.487-1.179,1.068-2.55,1.068c-2.15,0-3.276-1.65-3.276-3.276
			c0-4.352,4.462-7.76,10.157-7.76c6.461,0,10.462,4.611,10.462,8.882c0,0,0,12.049,0,12.192l0.179-0.496l4.391,2.352l-0.418,1.339
			C196.421,296.546,194.773,298.028,192.121,298.028z M187.317,284.866c-3.794,0.769-6.546,1.733-8.196,2.872
			c-1.048,0.666-1.51,1.442-1.51,2.479c0,1.854,1.739,2.84,2.993,2.84c2.401,0,6.257-1.77,6.714-4.447V284.866z"/>
		<path fill="#ED6B1A" stroke="#DB2018" stroke-miterlimit="10" d="M182.845,270.647c5.402,0,8.766,3.669,8.766,7.186v11.825
			c0,1.884,0,5.095,1.071,5.095c0.459,0,1.07-0.968,1.733-2.803l1.426,0.765c-1.019,3.262-2.396,3.619-3.72,3.619
			c-2.701,0-2.906-2.5-3.058-4.23l-1.478,1.579c-2.243,1.733-4.894,2.652-8.002,2.652c-2.294,0-6.268-1.172-6.268-6.116
			c0-2.04,0.815-3.721,2.599-5.099c2.345-1.782,6.678-3.056,13.098-3.922v-3.365c0-3.416-3.21-5.606-6.167-5.606
			c-3.669,0-5.402,2.343-5.402,3.414v0.612c0.102,0.561,0.307,2.04-1.478,2.04c-1.274,0-1.581-0.968-1.581-1.58
			C174.384,273.551,177.901,270.647,182.845,270.647 M180.602,294.753c3.211,0,7.899-2.292,8.409-6.014v-5.912
			c-5.095,0.867-8.715,2.039-10.855,3.515c-1.53,0.968-2.243,2.293-2.243,3.875C175.913,292.969,178.36,294.753,180.602,294.753
			 M182.845,267.256c-6.646,0-11.853,4.153-11.853,9.456c0,2.527,1.7,4.499,4.077,4.898c-0.435,0.258-0.838,0.529-1.209,0.812
			c-2.583,1.993-3.937,4.685-3.937,7.797c0,6.53,5.007,9.505,9.659,9.505c2.898,0,5.558-0.656,7.936-1.955
			c1.082,1.301,2.618,1.955,4.602,1.955c3.421,0,5.696-1.96,6.958-5.999l0.837-2.677l-2.474-1.324l-1.426-0.764l-1.014-0.542
			v-10.585C195.002,272.746,190.355,267.256,182.845,267.256L182.845,267.256z M180.859,276.206
			c0.264-0.229,0.858-0.588,1.986-0.588c1.159,0,2.776,0.842,2.776,2.215v0.449c-2.047,0.354-3.854,0.755-5.44,1.218
			C180.64,278.76,181.012,277.685,180.859,276.206L180.859,276.206z M180.602,291.362c-0.452,0-1.297-0.393-1.297-1.145
			c0-0.276,0-0.589,0.665-1.01l0.057-0.036l0.055-0.038c0.866-0.597,2.494-1.388,5.539-2.148v1.455
			C185.242,289.942,182.511,291.362,180.602,291.362L180.602,291.362z"/>
	</g>
	<g>
		<path fill="#FFF100" stroke="#DB2018" stroke-miterlimit="10" d="M210.964,297.01v-4.971h3.53c0.292,0,0.292-0.061,0.292-0.242
			v-13.71c0-1.084-0.331-3.604-3.401-3.604c-2.178,0-5.136,1.752-6,4.132c0,0,0,13.396,0.001,13.419l3.564,0.005v4.971h-13.278
			v-4.971h3.226c0.229,0,0.386-0.008,0.494-0.017c0-0.022,0.001-15.3,0.001-15.3c-0.206-0.034-0.552-0.067-1.129-0.067
			c-0.328,0-0.666,0.01-1.004,0.019l-1.741,0.046v-5.016h1.696c1.476,0,3.42-0.679,5.619-1.961l2.55-1.487v3.297
			c2-1.368,4.392-2.041,7.172-2.041c5.146,0,8.218,3.206,8.218,8.575v13.71c0,0.162,0.033,0.22,0.033,0.221l0,0
			c0.007,0,0.062,0.021,0.157,0.021h3.734v4.971H210.964L210.964,297.01z"/>
		<path fill="#ED6B1A" stroke="#DB2018" stroke-miterlimit="10" d="M212.557,271.206c5.198,0,6.523,3.67,6.523,6.879v13.71
			c0,1.326,0.918,1.937,1.886,1.937h2.039v1.58h-10.346v-1.58h1.835c1.122,0,1.987-0.714,1.987-1.937v-13.709
			c0-2.599-1.426-5.3-5.097-5.3c-2.854,0-6.676,2.191-7.695,5.556v13.608c0,1.326,0.713,1.783,1.579,1.783h1.987v1.58h-9.888v-1.58
			h1.53c1.223,0,2.191-0.154,2.191-1.783v-15.597c0-1.208-1.294-1.394-2.825-1.394c-0.342,0-0.694,0.009-1.049,0.019v-1.579
			c1.834,0,4.027-0.766,6.474-2.192v4.23l1.631-1.683C207.205,272.021,209.601,271.206,212.557,271.206 M207.082,265.304l-5.1,2.973
			c-2.581,1.505-4.092,1.731-4.764,1.731h-3.391v3.391v1.579v3.481l3.481-0.092c0.131-0.003,0.263-0.007,0.392-0.01v11.985h-0.33
			h-3.391v3.391v1.58v3.392h3.391h9.887h3.391h2.013h10.346h3.391v-3.392v-1.58v-3.391h-3.391h-0.534v-12.255
			c0-6.334-3.799-10.271-9.914-10.271c-2.002,0-3.831,0.314-5.477,0.94V265.304L207.082,265.304z M207.082,278.944
			c0.723-1.562,2.837-2.767,4.304-2.767c0.638,0,1.706,0,1.706,1.909v12.256h-0.431h-3.391h-2.013h-0.175V278.944L207.082,278.944z"
			/>
	</g>
	<g>
		<path fill="#FFF100" stroke="#DB2018" stroke-miterlimit="10" d="M236.102,297.365c-6.97,0-11.837-5.958-11.837-14.486
			c0-7.372,5.699-13.368,12.704-13.368c1.911,0,3.645,0.39,5.185,1.165v-7.501c-0.66-0.058-1.748-0.058-2.229-0.058h-1.695v-4.97
			h1.695c1.522,0,3.442-0.633,5.706-1.879l2.515-1.385v36.048c0,1.107,0.283,1.107,0.751,1.107h3.785v4.971h-10.527v-1.083
			C240.507,296.935,238.594,297.365,236.102,297.365z M236.969,274.686c-3.21,0-6.459,2.813-6.459,8.193
			c0,3.459,1.318,9.313,6.256,9.313c2.789,0,4.824-2.094,5.389-4.125v-10.769C241.593,276.469,239.736,274.686,236.969,274.686z"/>
		<path fill="#ED6B1A" stroke="#DB2018" stroke-miterlimit="10" d="M246.45,257.751v33.18c0,2.141,1.12,2.803,2.445,2.803h2.091
			v1.58h-7.135v-3.262c-1.937,2.497-3.924,3.617-7.747,3.617c-6.014,0-10.142-5.147-10.142-12.791
			c0-6.167,4.688-11.672,11.008-11.672c2.753,0,5.045,0.916,6.881,2.804v-11.163c0-1.275-0.408-1.428-3.924-1.428v-1.579
			C241.76,259.841,243.95,259.128,246.45,257.751 M236.765,293.888c3.721,0,6.421-2.804,7.085-5.608v-11.417
			c-0.562-1.274-3.161-3.873-6.881-3.873c-3.874,0-8.154,3.312-8.154,9.889C228.814,287.619,230.904,293.888,236.765,293.888
			 M249.841,252.013l-5.027,2.768c-2.503,1.38-4.04,1.669-4.888,1.669h-3.392v3.391v1.579v3.391h3.392c0.188,0,0.366,0,0.533,0.001
			v3.424c-1.097-0.281-2.262-0.423-3.488-0.423c-7.939,0-14.399,6.757-14.399,15.064c0,9.529,5.565,16.182,13.533,16.182
			c1.636,0,3.069-0.174,4.356-0.548v0.192h3.391h7.135h3.391v-3.392v-1.58v-3.391h-3.391h-1.145v-32.59L249.841,252.013
			L249.841,252.013z M236.765,290.497c-4.508,0-4.56-7.543-4.56-7.618c0-4.767,2.85-6.496,4.763-6.496
			c1.7,0,2.931,0.947,3.489,1.523v9.903C240.054,288.957,238.815,290.497,236.765,290.497L236.765,290.497z"/>
	</g>
	<g>
		<path fill="#FFF100" stroke="#DB2018" stroke-miterlimit="10" d="M288.591,297.365l-5.428-14.529l-4.265,14.174h-3.331
			l-8.68-21.939l-0.02-0.092c-0.31-0.088-1.054-0.088-1.564-0.088h-1.695v-4.97h12.157v4.97h-1.696c-0.328,0-0.691,0-1.015,0.008
			l4.121,10.684l3.183-10.691h-3.245v-4.97h12.157v4.97h-1.696c-0.366,0-0.778,0-1.127,0.011l4,10.852l3.609-10.862h-3.03v-4.97
			h12.056v4.97h-1.696c-0.841,0-1.882,0-2.18,0.127c0,0.016-0.024,0.076-0.051,0.181l-7.135,22.168h-3.43V297.365z"/>
		<path fill="#ED6B1A" stroke="#DB2018" stroke-miterlimit="10" d="M301.388,271.615v1.579c-2.345,0-3.466,0-3.873,1.58
			l-6.729,20.896h-1.02l-6.779-18.145l-5.351,17.788h-0.918l-8.205-20.744c-0.307-1.376-1.632-1.376-3.211-1.376v-1.579h8.766v1.579
			c-1.885,0-3.059,0-3.059,1.02c0,0.102,0.051,0.203,0.102,0.356l6.269,16.259l4.689-15.75v-0.102h0.05
			c0.051-0.306,0.103-0.561,0.103-0.764c0-0.764-0.562-1.02-1.376-1.02h-2.038v-1.579h8.766v1.579c-1.988,0-3.059,0-3.059,1.071
			c0,0.204,0.051,0.459,0.153,0.713l5.86,15.901l5.352-16.105c0.05-0.204,0.102-0.356,0.102-0.51c0-0.814-0.561-1.071-1.324-1.071
			h-1.937v-1.578h8.667 M304.78,268.223h-3.391h-8.665h-1.756h-3.391h-8.766h-1.349h-3.391h-8.766h-3.392v3.391v1.579v3.391h3.392
			c0.112,0,0.236,0,0.362,0.001l7.9,19.975l0.848,2.144h2.306h0.918h2.521l0.727-2.415l2.45-8.146l3.255,8.712l0.824,2.204h2.354
			h1.02h2.47l0.758-2.352l6.478-20.121c0.287-0.004,0.607-0.004,0.896-0.004h3.391v-3.391v-1.579v-3.39H304.78z M289.333,276.584
			h2.375l-1.341,4.039l-1.489-4.039H289.333L289.333,276.584z M275.525,276.584h2.56l-1.115,3.747L275.525,276.584L275.525,276.584z
			"/>
	</g>
	<g>
		<path fill="#FFF100" stroke="#DB2018" stroke-miterlimit="10" d="M315.707,297.977c-8.44,0-12.857-7.16-12.857-14.232
			c0-9.293,6.278-14.845,12.347-14.845c6.808,0,11.941,5.878,11.941,13.671v1.696h-18.286c0.224,4.789,3.506,8.739,7.365,8.739
			c3.081,0,4.881-2.143,7.09-5.166l0.975-1.334l4.163,2.881l-1.106,1.416C323.457,295.763,320.856,297.977,315.707,297.977z
			 M320.894,279.297c-0.292-1.731-0.825-2.986-1.616-3.804c-1.035-1.115-2.326-1.623-4.081-1.623c-2.529,0-4.796,2.19-5.827,5.426
			L320.894,279.297L320.894,279.297z"/>
		<path fill="#ED6B1A" stroke="#DB2018" stroke-miterlimit="10" d="M315.197,270.594c5.607,0,10.246,4.791,10.246,11.976h-18.298
			v1.174c0,5.657,3.924,10.957,9.073,10.957c3.924,0,6.116-2.65,8.459-5.863l1.326,0.918c-4.027,5.147-6.167,6.523-10.296,6.523
			c-7.85,0-11.162-6.931-11.162-12.537C304.545,275.741,309.846,270.594,315.197,270.594 M307.246,280.992h15.545
			c-0.204-3.007-0.917-5.251-2.292-6.677c-1.325-1.427-3.059-2.14-5.301-2.14C311.324,272.176,308.011,275.793,307.246,280.992
			 M315.197,267.203c-6.901,0-14.042,6.188-14.042,16.541c0,7.915,4.999,15.928,14.553,15.928c5.821,0,8.819-2.522,12.966-7.825
			l2.214-2.832l-2.955-2.047l-1.326-0.918l-0.128-0.089h2.355v-3.391C328.833,273.81,322.97,267.203,315.197,267.203
			L315.197,267.203z M312.042,277.601c0.858-1.26,1.984-2.035,3.156-2.035c1.616,0,2.331,0.534,2.816,1.057l0.021,0.024l0.023,0.022
			c0.227,0.235,0.427,0.548,0.602,0.932H312.042L312.042,277.601z M310.806,285.962h11.774l-0.642,0.877
			c-2.302,3.153-3.604,4.471-5.721,4.471C313.765,291.311,311.555,288.989,310.806,285.962L310.806,285.962z"/>
	</g>
	<g>
		<path fill="#FFF100" stroke="#DB2018" stroke-miterlimit="10" d="M327.67,297.01v-4.971h4.703c0.181,0,0.298-0.017,0.37-0.03
			c0.024-0.159,0.024-0.418,0.024-0.517v-28.312c-0.417-0.034-1.094-0.064-2.178-0.064h-1.695v-4.97h1.695
			c1.514,0,3.465-0.647,5.642-1.872l2.526-1.421v36.638c0,0.272,0.019,0.444,0.038,0.545c0.015,0.001,5.111,0.001,5.111,0.001v4.971
			H327.67z"/>
		<path fill="#ED6B1A" stroke="#DB2018" stroke-miterlimit="10" d="M337.06,257.751v33.741c0,1.173,0.255,2.242,1.784,2.242h3.364
			v1.58h-12.844v-1.58h3.007c2.039,0,2.089-1.326,2.089-2.242v-28.643c0-0.51-0.051-0.867-0.306-1.071
			c-0.255-0.255-1.479-0.358-3.568-0.358v-1.579C332.423,259.841,334.614,259.128,337.06,257.751 M340.451,251.954l-5.052,2.841
			c-1.896,1.066-3.605,1.654-4.811,1.654h-3.391v3.391v1.579v3.391h3.391c0.172,0,0.333,0,0.482,0.002v25.528h-1.706h-3.391v3.391
			v1.58v3.392h3.391h12.844h3.391v-3.392v-1.58v-3.391h-3.391h-1.757v-32.59V251.954L340.451,251.954z"/>
	</g>
	<g>
		<path fill="#FFF100" stroke="#DB2018" stroke-miterlimit="10" d="M357.344,298.028c-7.75,0-13.163-6.083-13.163-14.794
			c0-9.376,7.032-14.283,13.978-14.283c4.782,0,9.902,3.445,9.902,8.575c0,1.579-1.16,3.176-3.378,3.176
			c-1.896,0-3.327-1.388-3.327-3.227v-0.209l0.051-0.206c0.012-0.07,0.121-1.012,0.143-1.175c-0.11-0.484-1.097-1.963-3.391-1.963
			c-3.189,0-7.682,2.637-7.682,8.498c0,10.093,6.759,10.386,7.53,10.386c2.375,0,4.042-1.255,6.605-4.977l0.965-1.398l4.081,2.826
			l-0.907,1.383C365.354,295.819,361.943,298.028,357.344,298.028z"/>
		<path fill="#ED6B1A" stroke="#DB2018" stroke-miterlimit="10" d="M358.159,270.647c3.823,0,8.207,2.649,8.207,6.879
			c0,0.662-0.409,1.48-1.683,1.48c-0.764,0-1.631-0.459-1.631-1.531c0.051-0.203,0.152-1.274,0.204-1.529
			c0-1.274-1.682-3.72-5.098-3.72c-4.332,0-9.377,3.619-9.377,10.193c0,10.5,6.779,12.081,9.225,12.081
			c3.262,0,5.402-1.938,8.002-5.71l1.325,0.918c-3.008,4.586-5.86,6.625-9.989,6.625c-6.931,0-11.467-5.402-11.467-13.1
			C345.877,274.927,352.094,270.647,358.159,270.647 M358.159,267.256c-7.598,0-15.673,5.6-15.673,15.979
			c0,9.71,6.109,16.49,14.858,16.49c6.589,0,10.18-4.122,12.825-8.156l1.814-2.766l-2.72-1.882l-1.325-0.918l-2.794-1.934
			l-1.928,2.799c-2.458,3.566-3.727,4.242-5.21,4.242c-0.975,0-5.834-0.418-5.834-8.689c0-4.69,3.501-6.802,5.986-6.802
			c0.958,0,1.437,0.365,1.642,0.594c-0.002,0.019-0.004,0.038-0.007,0.055c-0.021,0.183-0.042,0.368-0.06,0.498l-0.073,0.29v0.419
			c0,2.76,2.207,4.922,5.022,4.922c2.892,0,5.071-2.095,5.071-4.872C369.757,271.183,363.737,267.256,358.159,267.256
			L358.159,267.256z"/>
	</g>
	<g>
		<path fill="#FFF100" stroke="#DB2018" stroke-miterlimit="10" d="M383.031,298.079c-9.115,0-13.264-7.458-13.264-14.387
			c0-10.966,7.933-14.946,13.264-14.946c6.241,0,12.96,4.677,12.96,14.946C395.99,290.844,391.537,298.079,383.031,298.079z
			 M383.031,273.768c-1.988,0-3.646,0.754-5.071,2.306c-1.286,1.447-1.949,4.018-1.949,7.619c0,2.197,0.506,9.364,7.02,9.364
			c6.341,0,6.663-7.8,6.663-9.364c0-3.618-0.638-6.218-1.901-7.73C386.528,274.492,384.965,273.768,383.031,273.768z"/>
		<path fill="#ED6B1A" stroke="#DB2018" stroke-miterlimit="10" d="M383.031,270.442c5.81,0,11.264,4.332,11.264,13.251
			c0,5.657-3.211,12.692-11.264,12.692c-8.511,0-11.568-7.238-11.568-12.692C371.462,273.907,378.443,270.442,383.031,270.442
			 M383.031,294.753c6.677,0,8.359-6.778,8.359-11.06c0-4.026-0.765-6.982-2.294-8.817c-1.579-1.836-3.617-2.804-6.063-2.804
			c-2.497,0-4.588,0.968-6.321,2.854c-1.631,1.835-2.395,4.792-2.395,8.766C374.316,287.413,375.692,294.753,383.031,294.753
			 M383.031,267.051c-7.252,0-14.959,5.833-14.959,16.643c0,7.747,4.682,16.082,14.959,16.082c9.622,0,14.655-8.089,14.655-16.082
			C397.686,272.258,390.088,267.051,383.031,267.051L383.031,267.051z M383.031,291.362c-4.805,0-5.324-5.363-5.324-7.668
			c0-3.953,0.835-5.723,1.538-6.514c1.08-1.172,2.259-1.715,3.786-1.715c1.431,0,2.542,0.517,3.495,1.625
			c0.937,1.125,1.473,3.486,1.473,6.604C387.997,285.491,387.638,291.362,383.031,291.362L383.031,291.362z"/>
	</g>
	<g>
		<path fill="#FFF100" stroke="#DB2018" stroke-miterlimit="10" d="M395.655,297.01v-4.971h3.224c0.4,0,0.643-0.084,0.698-0.125
			l-0.048-15.502c-0.557-0.094-1.611-0.094-2.23-0.094h-1.696v-4.972h1.696c1.583,0,3.527-0.56,5.776-1.662l2.442-1.196v2.38
			c1.188-0.821,2.674-1.356,4.778-1.356c2.628,0,4.726,0.949,6.235,2.821c1.433-1.398,3.705-2.821,7.017-2.821
			c4.703,0,7.863,3.509,7.863,8.728v13.557c0,0.118,0.012,0.193,0.021,0.237c0.005,0,0.098,0.004,0.168,0.004h3.48v4.971H395.655
			L395.655,297.01z M425.399,292.038c0.01-0.057,0.02-0.136,0.02-0.242v-13.557c0-1.129-0.248-3.757-2.534-3.757
			c-1.438,0-3.913,1.336-4.522,3.369v13.998c0,0.077,0.004,0.136,0.01,0.18c0.044,0.006,0.103,0.01,0.18,0.01h3.249H425.399
			L425.399,292.038z M412.385,292.038c-0.051,0-0.012-0.058-0.012-0.19v-13.353c0-4.013-2.062-4.013-2.741-4.013
			c-1.044,0-3.496,0.955-4.114,3.776v13.639c0,0.052,0.002,0.096,0.006,0.131l3.024,0.009H412.385L412.385,292.038z"/>
		<path fill="#ED6B1A" stroke="#DB2018" stroke-miterlimit="10" d="M423.547,271.206c3.516,0,6.168,2.446,6.168,7.033v13.557
			c0,1.223,0.662,1.937,1.885,1.937h1.785v1.58h-9.889v-1.58h1.988c1.019,0,1.631-0.714,1.631-1.937v-13.557
			c0-3.414-1.682-5.453-4.23-5.453c-2.192,0-5.504,1.885-6.218,4.842v14.22c0,1.274,0.664,1.885,1.885,1.885h1.734v1.58h-10.043
			v-1.58h2.143c0.814,0,1.682-0.714,1.682-1.885v-13.353c0-2.754-0.968-5.708-4.437-5.708c-1.936,0-5.096,1.58-5.81,5.3v13.812
			c0,1.224,0.662,1.836,1.682,1.836h1.937v1.58h-10.091v-1.58h1.529c0.865,0,2.344-0.255,2.344-1.836V276.05
			c0-1.376-1.529-1.427-3.924-1.427v-1.581c1.834,0,4.027-0.612,6.522-1.835v3.823c1.835-2.292,3.11-3.823,6.474-3.823
			c2.142,0,3.773,0.713,4.995,2.294c0.356,0.51,0.663,1.172,0.917,1.988C417.177,273.754,419.468,271.206,423.547,271.206
			 M407.213,265.768l-4.884,2.392c-2.51,1.231-4.121,1.489-5.03,1.489h-3.391v3.391v1.581v3.391h3.391c0.145,0,0.331,0,0.533,0.001
			v12.328h-0.481h-3.391v3.391v1.58v3.392h3.391h10.091h3.391h9.454h3.392h9.707h3.392v-3.392v-1.58v-3.391h-3.392h-0.279v-12.103
			c0-6.138-3.932-10.424-9.559-10.424c-2.561,0-4.947,0.781-6.909,2.194c-1.692-1.458-3.818-2.194-6.341-2.194
			c-1.172,0-2.189,0.146-3.083,0.4L407.213,265.768L407.213,265.768z M420.057,278.14c0.483-1.134,2.094-1.963,2.827-1.963
			c0.777,0,0.839,1.578,0.839,2.062v12.103h-0.228h-3.391h-0.047V278.14L420.057,278.14z M407.213,278.459
			c0.496-1.875,2.106-2.282,2.418-2.282c0.34,0,1.045,0,1.045,2.318v11.847h-0.434h-3.03V278.459L407.213,278.459z"/>
	</g>
	<g>
		<path fill="#FFF100" stroke="#DB2018" stroke-miterlimit="10" d="M447.498,297.977c-8.441,0-12.858-7.16-12.858-14.232
			c0-9.293,6.279-14.845,12.35-14.845c6.806,0,11.939,5.878,11.939,13.671v1.696h-18.284c0.224,4.789,3.506,8.739,7.364,8.739
			c3.083,0,4.883-2.143,7.091-5.166l0.975-1.334l4.164,2.881l-1.107,1.416C455.25,295.763,452.648,297.977,447.498,297.977z
			 M452.68,279.297c-0.295-1.722-0.834-2.997-1.612-3.804c-1.036-1.115-2.325-1.623-4.079-1.623c-2.528,0-4.797,2.19-5.827,5.426
			L452.68,279.297L452.68,279.297z"/>
		<path fill="#ED6B1A" stroke="#DB2018" stroke-miterlimit="10" d="M446.989,270.594c5.605,0,10.244,4.791,10.244,11.976h-18.297
			v1.174c0,5.657,3.924,10.957,9.071,10.957c3.924,0,6.116-2.65,8.461-5.863l1.325,0.918c-4.028,5.147-6.168,6.523-10.296,6.523
			c-7.849,0-11.162-6.931-11.162-12.537C436.336,275.741,441.637,270.594,446.989,270.594 M439.038,280.992h15.545
			c-0.204-3.007-0.919-5.251-2.294-6.677c-1.324-1.427-3.057-2.14-5.299-2.14C443.113,272.176,439.802,275.793,439.038,280.992
			 M446.989,267.203c-6.903,0-14.045,6.188-14.045,16.541c0,7.915,5.001,15.928,14.554,15.928c5.821,0,8.82-2.522,12.969-7.825
			l2.216-2.833l-2.958-2.045l-1.325-0.918l-0.13-0.089h2.355v-3.391C460.623,273.81,454.762,267.203,446.989,267.203
			L446.989,267.203z M443.808,277.601c0.854-1.268,1.981-2.035,3.181-2.035c1.616,0,2.329,0.534,2.813,1.057l0.024,0.024
			l0.022,0.023c0.226,0.235,0.427,0.546,0.602,0.93H443.808L443.808,277.601z M442.596,285.962h11.774l-0.641,0.877
			c-2.302,3.153-3.605,4.471-5.723,4.471C445.555,291.311,443.346,288.989,442.596,285.962L442.596,285.962z"/>
	</g>
	<g>
		<path fill="#FFF100" stroke="#DB2018" stroke-miterlimit="10" d="M482.816,297.365c-2.011,0-6.69-0.81-6.69-8.319v-14.055h-4.638
			v-4.971h1.695c2.796,0,4.114-0.898,4.114-9.11v-1.696h4.818v10.806h7.086v4.971h-7.086v14.055c0,3.349,0.387,3.349,1.413,3.349
			c0.217,0,1.424-0.137,3.83-2.846l1.166-1.313l3.61,3.447l-1.153,1.225C488.379,295.673,486.59,297.365,482.816,297.365z"/>
		<path fill="#ED6B1A" stroke="#DB2018" stroke-miterlimit="10" d="M480.421,260.91v10.806h7.086v1.58h-7.086v15.75
			c0,3.057,0.256,5.045,3.108,5.045c1.327,0,3.059-1.122,5.098-3.416l1.12,1.071c-2.497,2.65-3.873,3.924-6.931,3.924
			c-4.128,0-4.994-3.515-4.994-6.624v-15.75h-4.639v-1.58c4.737,0,5.81-3.16,5.81-10.806L480.421,260.91 M483.811,257.519h-3.391
			h-1.428h-3.391v3.391c0,1.285,0,5.191-0.777,6.771c-0.178,0.36-0.317,0.644-1.641,0.644h-3.392v3.391v1.58v3.391h3.392h1.247
			v12.36c0,9.294,6.42,10.015,8.386,10.015c4.698,0,6.983-2.424,9.399-4.988l2.311-2.454l-2.438-2.326l-1.122-1.07l-2.542-2.427
			l-2.333,2.628c-1.062,1.194-1.804,1.773-2.24,2.049c-0.023-0.335-0.039-0.796-0.039-1.427v-12.36h3.695h3.391v-3.391v-1.58v-3.391
			h-3.391h-3.695v-7.415v-3.39H483.811z"/>
	</g>
	<g>
		<path fill="#FFF100" stroke="#DB2018" stroke-miterlimit="10" d="M504.272,298.079c-9.115,0-13.266-7.458-13.266-14.387
			c0-10.966,7.935-14.946,13.266-14.946c6.24,0,12.958,4.677,12.958,14.946C517.23,290.844,512.779,298.079,504.272,298.079z
			 M504.272,273.768c-1.987,0-3.647,0.754-5.072,2.306c-1.286,1.447-1.947,4.019-1.947,7.619c0,2.197,0.505,9.364,7.02,9.364
			c6.34,0,6.662-7.8,6.662-9.364c0-3.62-0.639-6.221-1.899-7.73C507.768,274.492,506.205,273.768,504.272,273.768z"/>
		<path fill="#ED6B1A" stroke="#DB2018" stroke-miterlimit="10" d="M504.272,270.442c5.81,0,11.263,4.332,11.263,13.251
			c0,5.657-3.211,12.692-11.263,12.692c-8.513,0-11.57-7.238-11.57-12.692C492.701,273.907,499.683,270.442,504.272,270.442
			 M504.272,294.753c6.675,0,8.357-6.778,8.357-11.06c0-4.026-0.763-6.982-2.292-8.817c-1.58-1.836-3.619-2.804-6.064-2.804
			c-2.498,0-4.589,0.968-6.321,2.854c-1.63,1.835-2.394,4.792-2.394,8.766C495.556,287.413,496.932,294.753,504.272,294.753
			 M504.272,267.051c-7.253,0-14.961,5.833-14.961,16.643c0,7.747,4.683,16.082,14.961,16.082c9.62,0,14.654-8.089,14.654-16.082
			C518.927,272.258,511.33,267.051,504.272,267.051L504.272,267.051z M500.469,277.197c1.11-1.199,2.283-1.734,3.803-1.734
			c1.43,0,2.54,0.517,3.494,1.626c0.938,1.123,1.472,3.482,1.472,6.603c0,1.799-0.356,7.669-4.966,7.669
			c-4.806,0-5.324-5.363-5.324-7.669C498.948,279.772,499.77,277.997,500.469,277.197L500.469,277.197z"/>
	</g>
	<g>
		<path fill="#FFF100" stroke="#DB2018" stroke-miterlimit="10" d="M529.685,297.01v-4.971h3.228c0.399,0,0.642-0.084,0.698-0.126
			l-0.049-15.5c-0.556-0.094-1.611-0.094-2.23-0.094h-1.695v-4.972h1.695c1.583,0,3.527-0.56,5.777-1.662l2.442-1.196v2.379
			c1.188-0.82,2.673-1.355,4.776-1.355c2.627,0,4.724,0.948,6.234,2.821c1.432-1.398,3.704-2.821,7.018-2.821
			c4.701,0,7.862,3.509,7.862,8.728v13.557c0,0.118,0.012,0.193,0.021,0.237c0.005-0.001,0.099,0.004,0.17,0.004h3.478v4.971
			H529.685L529.685,297.01z M559.433,292.038c0.01-0.057,0.019-0.136,0.019-0.242v-13.557c0-1.129-0.247-3.757-2.533-3.757
			c-1.438,0-3.915,1.336-4.522,3.368v13.999c0,0.076,0.004,0.136,0.01,0.18c0.044,0.006,0.104,0.01,0.181,0.01h3.247H559.433z
			 M546.417,292.038c-0.05,0-0.014-0.058-0.014-0.19v-13.353c0-4.013-2.06-4.013-2.737-4.013c-1.046,0-3.498,0.955-4.114,3.776
			v13.639c0,0.052,0.002,0.096,0.005,0.131l3.025,0.009H546.417L546.417,292.038z"/>
		<path fill="#ED6B1A" stroke="#DB2018" stroke-miterlimit="10" d="M557.58,271.206c3.515,0,6.166,2.446,6.166,7.033v13.557
			c0,1.223,0.664,1.937,1.888,1.937h1.782v1.58h-9.887v-1.58h1.987c1.019,0,1.63-0.714,1.63-1.937v-13.557
			c0-3.414-1.681-5.453-4.229-5.453c-2.191,0-5.505,1.885-6.22,4.842v14.22c0,1.274,0.664,1.885,1.888,1.885h1.731v1.58h-10.04
			v-1.58h2.141c0.816,0,1.681-0.714,1.681-1.885v-13.353c0-2.754-0.967-5.708-4.433-5.708c-1.938,0-5.098,1.58-5.811,5.3v13.812
			c0,1.224,0.663,1.836,1.681,1.836h1.938v1.58h-10.094v-1.58h1.531c0.865,0,2.343-0.255,2.343-1.836V276.05
			c0-1.376-1.529-1.427-3.924-1.427v-1.581c1.835,0,4.026-0.612,6.523-1.835v3.823c1.834-2.292,3.108-3.823,6.473-3.823
			c2.142,0,3.771,0.713,4.995,2.294c0.355,0.51,0.661,1.172,0.918,1.988C551.209,273.754,553.502,271.206,557.58,271.206
			 M541.248,265.77l-4.883,2.391c-2.512,1.232-4.123,1.489-5.032,1.489h-3.392v3.391v1.581v3.391h3.392c0.145,0,0.331,0,0.534,0.001
			v12.328h-0.484h-3.392v3.391v1.58v3.392h3.392h10.094h3.392h9.45h3.391h9.709h3.392v-3.392v-1.58v-3.391h-3.392h-0.279v-12.103
			c0-6.138-3.931-10.424-9.558-10.424c-2.561,0-4.948,0.781-6.909,2.194c-1.693-1.458-3.818-2.194-6.342-2.194
			c-1.171,0-2.187,0.146-3.081,0.4L541.248,265.77L541.248,265.77z M554.09,278.138c0.483-1.132,2.094-1.961,2.828-1.961
			c0.777,0,0.838,1.578,0.838,2.062v12.103h-0.227h-3.391h-0.049V278.138L554.09,278.138z M541.248,278.458
			c0.492-1.875,2.105-2.281,2.419-2.281c0.338,0,1.042,0,1.042,2.318v11.847h-0.431h-3.03V278.458L541.248,278.458z"/>
	</g>
	<g>
		<path fill="#FFF100" stroke="#DB2018" stroke-miterlimit="10" d="M575.518,302.514c-2.642,0-5.314-1.457-5.314-4.245
			c0-2.216,1.648-3.376,3.275-3.376c0.905,0,1.891,0.351,2.851,1.016c0.401,0.267,0.56,0.309,0.577,0.313
			c0.621-0.005,1.511-0.207,2.293-1.769l0.359-0.775l-8.183-17.787c-0.474-1.053-0.474-1.053-2.434-1.053h-1.695v-4.971h12.972
			v4.971h-2.78l5.397,11.903l5.625-11.903h-3.273v-4.971h13.329v4.971h-3.581c-0.885,0-1.436,0.257-1.634,0.762l-9.265,19.917
			C581.253,301.603,577.506,302.514,575.518,302.514z"/>
		<path fill="#ED6B1A" stroke="#DB2018" stroke-miterlimit="10" d="M596.822,271.564v1.58h-1.886c-0.766,0-2.548,0.152-3.211,1.834
			l-9.225,19.825c-1.938,4.232-4.537,6.015-6.982,6.015c-1.632,0-3.618-0.765-3.618-2.549c0-1.528,1.274-1.681,1.579-1.681
			c0.56,0,1.222,0.255,1.886,0.714c0.61,0.406,1.069,0.611,1.478,0.611c1.63,0,2.955-0.866,3.875-2.7l0.712-1.531l-8.511-18.5
			c-0.917-2.039-1.682-2.039-3.975-2.039v-1.58h9.581v1.58h-2.242c-0.662,0-0.968,0.256-0.968,0.713
			c0,0.307,0.103,0.662,0.307,1.069l7.186,15.852l7.441-15.749c0.153-0.357,0.257-0.713,0.257-0.968
			c0-0.612-0.459-0.918-1.327-0.918h-2.292v-1.58h9.936 M600.214,268.173h-3.392h-9.938h-3.391v3.391v1.58v3.391h2.291l-2.914,6.17
			l-2.799-6.17h1.844v-3.391v-1.58v-3.391h-3.391h-9.581h-3.391v3.391v1.58v3.391h3.391c0.283,0,0.604,0,0.867,0.006
			c0.004,0.012,0.01,0.023,0.016,0.033l7.867,17.101l-0.026,0.057c-0.202,0.396-0.369,0.592-0.505,0.691
			c-1.204-0.802-2.474-1.226-3.682-1.226c-2.409,0-4.971,1.778-4.971,5.072c0,3.386,3.014,5.94,7.011,5.94
			c2.393,0,6.882-1.04,10.064-7.996l9.153-19.669c0.055-0.005,0.121-0.01,0.2-0.01h1.885h3.392v-3.391v-1.58L600.214,268.173
			L600.214,268.173z"/>
	</g>
	<g>
		<path fill="#FFF100" stroke="#DB2018" stroke-miterlimit="10" d="M634.377,297.365l-5.431-14.529l-4.263,14.174h-3.329
			l-8.681-21.939l-0.02-0.092c-0.312-0.088-1.057-0.088-1.565-0.088h-1.695v-4.97h12.157v4.97h-1.695c-0.328,0-0.691,0-1.015,0.008
			l4.122,10.684l3.181-10.691h-3.244v-4.97h12.158v4.97h-1.695c-0.366,0-0.778,0-1.127,0.011l4,10.852l3.609-10.862h-3.03v-4.97
			h12.054v4.97h-1.695c-0.842,0-1.883,0-2.18,0.127c0,0.016-0.024,0.076-0.054,0.182l-7.133,22.167h-3.43V297.365z"/>
		<path fill="#ED6B1A" stroke="#DB2018" stroke-miterlimit="10" d="M647.174,271.615v1.579c-2.345,0-3.465,0-3.873,1.58
			l-6.728,20.896h-1.019l-6.78-18.145l-5.35,17.788h-0.918l-8.205-20.744c-0.308-1.376-1.632-1.376-3.212-1.376v-1.579h8.767v1.579
			c-1.886,0-3.058,0-3.058,1.02c0,0.102,0.051,0.203,0.102,0.356l6.269,16.259l4.688-15.75v-0.102h0.052
			c0.051-0.306,0.102-0.561,0.102-0.764c0-0.764-0.561-1.02-1.376-1.02h-2.038v-1.579h8.766v1.579c-1.989,0-3.058,0-3.058,1.071
			c0,0.204,0.052,0.459,0.152,0.713l5.861,15.901l5.352-16.105c0.051-0.204,0.103-0.356,0.103-0.51c0-0.814-0.562-1.071-1.325-1.071
			h-1.937v-1.578h8.663 M650.565,268.223h-3.392h-8.663h-1.757h-3.392h-8.768h-1.348h-3.391h-8.767h-3.391v3.391v1.579v3.391h3.391
			c0.113,0,0.237,0,0.361,0.001l7.9,19.975l0.849,2.144h2.306h0.918h2.521l0.727-2.415l2.451-8.146l3.256,8.713l0.823,2.204h2.353
			h1.019h2.471l0.757-2.352l6.478-20.121c0.287-0.004,0.607-0.004,0.896-0.004h3.392v-3.391v-1.579L650.565,268.223L650.565,268.223
			z M635.119,276.584h2.376l-1.342,4.039l-1.489-4.039H635.119L635.119,276.584z M621.311,276.584h2.56l-1.115,3.747
			L621.311,276.584L621.311,276.584z"/>
	</g>
	<g>
		<path fill="#FFF100" stroke="#DB2018" stroke-miterlimit="10" d="M661.494,297.977c-8.441,0-12.858-7.16-12.858-14.232
			c0-9.293,6.277-14.845,12.348-14.845c6.807,0,11.941,5.878,11.941,13.671v1.696h-18.287c0.224,4.789,3.506,8.739,7.365,8.739
			c3.082,0,4.882-2.143,7.09-5.166l0.976-1.335l4.16,2.882l-1.106,1.416C669.243,295.763,666.642,297.977,661.494,297.977z
			 M666.677,279.297c-0.295-1.722-0.836-2.997-1.613-3.804c-1.035-1.115-2.325-1.623-4.08-1.623c-2.527,0-4.796,2.19-5.827,5.426
			L666.677,279.297L666.677,279.297z"/>
		<path fill="#ED6B1A" stroke="#DB2018" stroke-miterlimit="10" d="M660.982,270.594c5.605,0,10.245,4.791,10.245,11.976h-18.298
			v1.174c0,5.657,3.925,10.957,9.072,10.957c3.924,0,6.115-2.65,8.46-5.863l1.323,0.918c-4.024,5.147-6.166,6.523-10.293,6.523
			c-7.85,0-11.162-6.931-11.162-12.537C650.331,275.741,655.631,270.594,660.982,270.594 M653.031,280.992h15.545
			c-0.203-3.007-0.917-5.251-2.293-6.677c-1.325-1.427-3.057-2.14-5.3-2.14C657.111,272.176,653.797,275.793,653.031,280.992
			 M660.982,267.203c-6.903,0-14.043,6.188-14.043,16.541c0,7.915,4.999,15.928,14.553,15.928c5.821,0,8.819-2.522,12.966-7.827
			l2.212-2.829l-2.951-2.046l-1.324-0.918l-0.131-0.091h2.354v-3.391C674.619,273.81,668.756,267.203,660.982,267.203
			L660.982,267.203z M657.826,277.601c0.859-1.26,1.985-2.035,3.156-2.035c1.616,0,2.329,0.534,2.814,1.057l0.022,0.024l0.023,0.023
			c0.227,0.235,0.428,0.546,0.601,0.93H657.826L657.826,277.601z M656.593,285.962h11.773l-0.641,0.877
			c-2.302,3.153-3.604,4.471-5.723,4.471C659.55,291.311,657.342,288.989,656.593,285.962L656.593,285.962z"/>
	</g>
	<g>
		<path fill="#FFF100" stroke="#DB2018" stroke-miterlimit="10" d="M686.515,297.365c-2.391,0-4.396-0.646-6.382-2.108l-0.635,1.753
			h-4.159v-34.026c-0.623-0.07-1.708-0.07-2.179-0.07h-1.696v-4.971h1.696c1.593,0,3.561-0.585,5.69-1.694l2.479-1.289v16.178
			c1.848-1.101,3.928-1.626,6.355-1.626c5.358,0,11.125,4.12,11.125,13.164C698.811,289.75,694.964,297.365,686.515,297.365z
			 M681.331,289.456c0.751,1.291,2.85,2.939,5.185,2.939c1.783,0,3.133-0.63,4.244-1.981c1.405-1.668,2.112-4.265,2.112-7.739
			c0-2.938-0.617-5.084-1.835-6.385c-1.171-1.21-2.556-1.807-4.215-1.807c-2.604,0-4.796,2.166-5.49,3.307L681.331,289.456
			L681.331,289.456z"/>
		<path fill="#ED6B1A" stroke="#DB2018" stroke-miterlimit="10" d="M679.635,257.751v16.973c2.191-2.397,4.637-3.517,8.052-3.517
			c4.383,0,9.43,3.416,9.43,11.468c0,6.421-3.364,12.995-10.601,12.995c-2.906,0-4.944-1.121-7.136-3.313l-1.069,2.956h-1.274
			v-32.669c0-1.274-0.765-1.427-3.874-1.427v-1.58C674.998,259.636,677.187,259.025,679.635,257.751 M686.515,294.091
			c2.292,0,4.127-0.869,5.554-2.6c1.633-1.937,2.498-4.842,2.498-8.817c0-3.416-0.765-5.913-2.293-7.544
			c-1.479-1.529-3.313-2.344-5.452-2.344c-3.619,0-6.523,3.109-7.186,4.587v12.487C680.45,291.696,683.255,294.091,686.515,294.091
			 M683.026,252.164l-4.957,2.581c-2.385,1.242-3.985,1.501-4.908,1.501h-3.392v3.391v1.58v3.391h3.392c0.17,0,0.332,0,0.483,0.001
			v30.705v3.391h3.391h1.274h2.378l0.331-0.914c1.503,0.755,3.306,1.27,5.496,1.27c9.613,0,13.991-8.495,13.991-16.387
			c0-9.755-6.449-14.858-12.82-14.858c-1.691,0-3.235,0.225-4.66,0.689v-10.753L683.026,252.164L683.026,252.164z M683.026,278.323
			c0.655-0.814,2.17-2.145,3.795-2.145c1.192,0,2.149,0.417,3.016,1.311c1.101,1.176,1.339,3.473,1.339,5.187
			c0,3.063-0.571,5.293-1.698,6.63c-0.813,0.986-1.691,1.395-2.962,1.395c-1.507,0-2.877-1.035-3.489-1.775V278.323L683.026,278.323
			z"/>
	</g>
	<g>
		<path fill="#FFF100" stroke="#DB2018" stroke-miterlimit="10" d="M711.845,297.926c-1.942,0-3.973-0.566-6.053-1.684l-0.853,0.919
			h-2.819l-2.988-10.029l3.836-1.129l0.645,1.237c1.143,2.193,2.361,3.61,3.724,4.33l0.099,0.058
			c1.406,0.869,2.932,1.328,4.41,1.328c1.892,0,3.809-1.029,3.809-2.995c0-1.926-0.715-3.101-4.617-4.174
			c-4.682-1.125-7.252-2.269-8.545-3.805c-1.201-1.26-1.874-3.075-1.874-5.168c0-3.253,3.14-7.761,9.034-7.761
			c1.762,0,3.462,0.362,5.07,1.079l0.704-0.771h2.422l3.909,10.119h-4.383l-0.497-0.799c-1.739-2.796-3.634-4.655-7.226-4.655
			c-2.434,0-3.299,1.503-3.299,2.79c0,1.017,0,1.894,5.492,3.085c5.063,1.329,9.542,3.052,9.542,9.658
			C721.389,293.614,718.045,297.926,711.845,297.926z"/>
		<path fill="#ED6B1A" stroke="#DB2018" stroke-miterlimit="10" d="M709.652,270.747c1.936,0,3.771,0.51,5.454,1.479l1.068-1.172
			h0.511l2.599,6.728h-0.968c-1.937-3.109-4.279-5.454-8.664-5.454c-3.263,0-4.994,2.14-4.994,4.485c0,2.652,1.886,3.67,6.828,4.741
			c4.842,1.273,8.208,2.649,8.208,8.001c0,3.16-2.702,6.675-7.849,6.675c-1.988,0-4.13-0.714-6.372-2.14l-1.273,1.376h-0.816
			l-2.142-7.187l0.867-0.256c1.274,2.447,2.702,4.129,4.435,5.046c1.732,1.071,3.567,1.581,5.301,1.581
			c2.853,0,5.504-1.732,5.504-4.69c0-3.515-2.345-4.842-5.863-5.81c-4.025-0.968-6.624-1.987-7.696-3.261
			c-0.968-1.02-1.477-2.446-1.477-4.078C702.314,274.264,704.913,270.747,709.652,270.747 M709.652,267.356
			c-6.418,0-10.729,4.891-10.729,9.456c0,2.463,0.828,4.709,2.34,6.34c0.371,0.428,0.807,0.823,1.323,1.196l-1.435,0.423
			l-0.868,0.255l-3.264,0.962l0.972,3.261l2.141,7.188l0.724,2.423h2.526h0.816h1.482l0.495-0.535
			c1.922,0.863,3.821,1.298,5.668,1.298c7.035,0,11.239-5.118,11.239-10.066c0-4.201-1.658-6.751-3.817-8.382h0.018h4.946
			l-1.782-4.614l-2.599-6.727l-0.838-2.169h-2.326h-0.511h-1.498l-0.42,0.462C712.778,267.614,711.237,267.356,709.652,267.356
			L709.652,267.356z M708.052,276.927c-0.002-0.03-0.004-0.068-0.004-0.116c0-0.727,0.54-1.094,1.604-1.094
			c2.38,0,3.813,0.86,5.469,3.36c-0.984-0.334-1.938-0.585-2.771-0.805l-0.071-0.019l-0.072-0.018
			C709.26,277.602,708.341,277.144,708.052,276.927L708.052,276.927z M711.845,291.26c-1.164,0-2.381-0.372-3.519-1.074
			l-0.097-0.061l-0.101-0.053c-1.049-0.554-2.033-1.737-3.013-3.614l-0.494-0.952c1.517,0.693,3.472,1.313,6.016,1.929
			c3.32,0.919,3.32,1.593,3.32,2.524C713.958,291.028,712.431,291.26,711.845,291.26L711.845,291.26z"/>
	</g>
	<g>
		<path fill="#FFF100" stroke="#DB2018" stroke-miterlimit="10" d="M722.073,297.01v-4.971h4.754c0.361,0,0.546-0.094,0.575-0.118
			l-0.026-15.373c-0.236-0.046-0.65-0.093-1.354-0.093c-0.278,0-0.558,0.008-0.828,0.014l-1.742,0.05v-5.02h1.695
			c1.577,0,3.481-0.599,5.665-1.783l2.504-1.355V291.9c0,0.082,0.011,0.117,0.011,0.117c-0.002-0.009,0.007-0.012,0.021-0.012
			c0.057,0,0.207,0.035,0.413,0.035h4.754v4.971h-16.441V297.01z M730.395,263.984c-2.216,0-3.887-1.738-3.887-4.041
			c0-2.318,1.598-3.938,3.887-3.938c2.295,0,4.092,1.729,4.092,3.938C734.487,262.132,732.613,263.984,730.395,263.984z"/>
		<path fill="#ED6B1A" stroke="#DB2018" stroke-miterlimit="10" d="M730.395,257.7c1.325,0,2.396,0.918,2.396,2.243
			s-1.174,2.345-2.396,2.345c-1.479,0-2.191-1.172-2.191-2.345C728.203,258.617,729.019,257.7,730.395,257.7 M731.618,271.206
			v20.691c0,1.428,1.174,1.835,2.142,1.835h3.058v1.58h-13.048v-1.58h3.059c1.122,0,2.242-0.511,2.242-1.835v-15.799
			c0-1.156-1.509-1.341-3.049-1.341c-0.293,0-0.589,0.008-0.875,0.015v-1.58C727.03,273.193,729.173,272.532,731.618,271.206
			 M730.395,254.309c-3.234,0-5.583,2.37-5.583,5.634c0,3.27,2.4,5.736,5.583,5.736c3.136,0,5.787-2.627,5.787-5.736
			C736.182,256.784,733.64,254.309,730.395,254.309L730.395,254.309z M735.01,265.511l-5.009,2.713
			c-1.932,1.046-3.564,1.577-4.855,1.577h-3.392v3.391v1.58v3.487l3.486-0.097c0.145-0.004,0.29-0.009,0.439-0.012v12.19h-1.91
			h-3.391v3.391v1.58v3.392h3.391h13.047h3.392v-3.392v-1.58v-3.391h-3.392h-1.808v-19.136L735.01,265.511L735.01,265.511z"/>
	</g>
	<g>
		<path fill="#FFF100" stroke="#DB2018" stroke-miterlimit="10" d="M748.997,297.365c-2.012,0-6.688-0.81-6.688-8.319v-14.055h-4.64
			v-4.971h1.695c2.798,0,4.115-0.898,4.115-9.11v-1.696h4.818v10.806h7.085v4.971h-7.085v14.055c0,3.349,0.386,3.349,1.413,3.349
			c0.218,0,1.423-0.137,3.83-2.846l1.166-1.313l3.611,3.447l-1.155,1.225C754.56,295.673,752.772,297.365,748.997,297.365z"/>
		<path fill="#ED6B1A" stroke="#DB2018" stroke-miterlimit="10" d="M746.602,260.91v10.806h7.085v1.58h-7.085v15.75
			c0,3.057,0.255,5.045,3.108,5.045c1.325,0,3.059-1.122,5.097-3.416l1.122,1.071c-2.497,2.65-3.874,3.924-6.933,3.924
			c-4.128,0-4.993-3.515-4.993-6.624v-15.75h-4.64v-1.58c4.739,0,5.811-3.16,5.811-10.806L746.602,260.91 M749.994,257.519h-3.392
			h-1.428h-3.391v3.391c0,1.285,0,5.191-0.778,6.771c-0.178,0.36-0.316,0.644-1.641,0.644h-3.391v3.391v1.58v3.391h3.391h1.249
			v12.36c0,9.294,6.417,10.015,8.384,10.015c4.699,0,6.983-2.424,9.399-4.988l2.311-2.454l-2.437-2.326l-1.121-1.07l-2.542-2.427
			l-2.335,2.628c-1.06,1.193-1.804,1.772-2.239,2.049c-0.024-0.335-0.038-0.796-0.038-1.426v-12.36h3.693h3.392v-3.391v-1.58v-3.391
			h-3.392h-3.693v-7.415v-3.391H749.994z"/>
	</g>
	<g>
		<path fill="#FFF100" stroke="#DB2018" stroke-miterlimit="10" d="M770.045,297.977c-8.442,0-12.858-7.16-12.858-14.232
			c0-9.293,6.279-14.845,12.35-14.845c6.806,0,11.938,5.878,11.938,13.671v1.696h-18.286c0.224,4.789,3.506,8.739,7.365,8.739
			c3.081,0,4.883-2.143,7.093-5.166l0.975-1.334l4.161,2.881l-1.105,1.416C777.794,295.763,775.194,297.977,770.045,297.977z
			 M775.227,279.297c-0.296-1.722-0.835-2.997-1.614-3.804c-1.035-1.114-2.323-1.622-4.077-1.622c-2.528,0-4.797,2.19-5.828,5.426
			H775.227z"/>
		<path fill="#ED6B1A" stroke="#DB2018" stroke-miterlimit="10" d="M769.536,270.594c5.605,0,10.243,4.791,10.243,11.976h-18.298
			v1.174c0,5.657,3.925,10.957,9.072,10.957c3.924,0,6.115-2.65,8.461-5.863l1.325,0.918c-4.027,5.147-6.169,6.523-10.295,6.523
			c-7.849,0-11.163-6.931-11.163-12.537C758.882,275.741,764.181,270.594,769.536,270.594 M761.585,280.992h15.544
			c-0.203-3.007-0.919-5.251-2.293-6.677c-1.326-1.427-3.058-2.14-5.299-2.14C765.661,272.176,762.348,275.793,761.585,280.992
			 M769.536,267.203c-6.904,0-14.045,6.188-14.045,16.541c0,7.915,4.999,15.928,14.554,15.928c5.819,0,8.818-2.522,12.967-7.825
			l2.215-2.832l-2.955-2.047l-1.324-0.918l-0.131-0.089h2.354v-3.391C783.169,273.81,777.308,267.203,769.536,267.203
			L769.536,267.203z M766.355,277.601c0.854-1.268,1.981-2.035,3.181-2.035c1.614,0,2.329,0.535,2.814,1.057l0.022,0.024
			l0.021,0.022c0.227,0.235,0.43,0.548,0.602,0.932H766.355L766.355,277.601z M765.142,285.962h11.776l-0.642,0.877
			c-2.303,3.153-3.607,4.471-5.724,4.471C768.1,291.311,765.891,288.989,765.142,285.962L765.142,285.962z"/>
	</g>
</g>
</svg>
