<!--?xml version="1.0" encoding="utf-8"?-->
<!-- Generator: Adobe Illustrator 16.0.0, SVG Export Plug-In . SVG Version: 6.00 Build 0)  -->

<svg version="1.1" id="圖層_1" xmlns="http://www.w3.org/2000/svg" xmlns:xlink="http://www.w3.org/1999/xlink" x="0px" y="0px" width="841.891px" height="595.279px" viewBox="0 0 841.891 595.279" enable-background="new 0 0 841.891 595.279" xml:space="preserve" style="">
<g>
	<g>
		<path fill="#FFF100" stroke="#DB2018" stroke-width="0.25" stroke-miterlimit="10" d="M-29.464,306.47v-6.89h6.731
			c0.317,0,0.618,0,0.618-0.688v-17.359h-22.427v17.359c0,0.429,0,0.688,1.109,0.688h5.884v6.89H-59.91v-6.89h6.306
			c0.83,0,0.83-0.448,0.83-0.688v-40.621c0-1.181-0.339-1.181-0.9-1.181h-6.165V250.2h22.291v6.891h-5.884
			c-0.913,0-1.109,0.102-1.109,1.181v16.37h22.427v-16.723c0-0.731-0.181-0.828-0.9-0.828h-6.448V250.2h22.927v6.891h-6.024
			c-1.252,0-1.252,0.26-1.252,0.828v40.974c0,0.415,0,0.688,1.182,0.688h6.095v6.89H-29.464z" class="vsUyaRTL_0"></path>
		<path fill="#ED6B1A" stroke="#DB2018" stroke-width="0.25" stroke-miterlimit="10" d="M-8.887,252.547v2.19h-3.674
			c-2.544,0-3.602,1.272-3.602,3.18v40.972c0,1.837,1.129,3.038,3.532,3.038h3.745v2.189h-18.227v-2.189h4.381
			c1.906,0,2.969-1.343,2.969-3.038V279.18h-27.128v19.709c0,2.686,2.261,3.038,3.46,3.038h3.534v2.189H-57.56v-2.189h3.956
			c1.695,0,3.18-1.061,3.18-3.038v-40.62c0-2.757-1.696-3.532-3.25-3.532h-3.814v-2.19h17.59v2.19h-3.534
			c-2.047,0-3.46,0.99-3.46,3.532v18.72h27.128v-19.073c0-1.272-0.566-3.18-3.25-3.18h-4.098v-2.19H-8.887 M-4.187,247.846h-4.7
			h-18.227h-4.7v4.701v2.19v4.7h4.7h2.646v12.853h-17.726v-12.853h2.292h4.701v-4.7v-2.19v-4.701h-4.701h-17.59h-4.701v4.701v2.19
			v4.7h4.701h2.364v37.791h-2.435h-4.7v4.7v2.19v4.699h4.7h17.661h4.701v-4.699v-2.19v-4.7h-4.701h-2.292v-13.347h17.726v13.347
			h-2.646h-4.7v4.7v2.19v4.699h4.7h18.227h4.7v-4.699v-2.19v-4.7h-4.7h-2.576v-37.791h2.576h4.7v-4.7v-2.19V247.846L-4.187,247.846z
			" class="vsUyaRTL_1"></path>
	</g>
	<g>
		<path fill="#FFF100" stroke="#DB2018" stroke-width="0.25" stroke-miterlimit="10" d="M11.315,307.811
			c-11.7,0-17.821-9.926-17.821-19.728c0-12.882,8.702-20.578,17.115-20.578c9.435,0,16.549,8.148,16.549,18.95v2.35H1.813
			c0.311,6.638,4.86,12.114,10.208,12.114c4.272,0,6.768-2.97,9.829-7.161l1.351-1.851l5.77,3.995l-1.533,1.962
			C22.055,304.742,18.451,307.811,11.315,307.811z M18.503,281.918c-0.404-2.4-1.145-4.139-2.24-5.274
			c-1.435-1.544-3.224-2.249-5.657-2.249c-3.505,0-6.648,3.035-8.076,7.521h15.974V281.918z" class="vsUyaRTL_2"></path>
		<path fill="#ED6B1A" stroke="#DB2018" stroke-width="0.25" stroke-miterlimit="10" d="M10.606,269.855
			c7.772,0,14.2,6.642,14.2,16.601H-0.556v1.627c0,7.841,5.44,15.187,12.575,15.187c5.439,0,8.477-3.673,11.728-8.126l1.835,1.273
			c-5.58,7.135-8.549,9.041-14.27,9.041c-10.881,0-15.471-9.607-15.471-17.378C-4.156,276.99,3.188,269.855,10.606,269.855
			 M-0.414,284.268h21.547c-0.283-4.168-1.271-7.278-3.179-9.254c-1.836-1.979-4.237-2.967-7.346-2.967
			C5.239,272.047,0.645,277.061-0.414,284.268 M10.606,265.156c-9.567,0-19.464,8.576-19.464,22.928
			c0,10.97,6.928,22.076,20.172,22.076c8.066,0,12.224-3.495,17.972-10.846l3.069-3.925l-4.097-2.838l-1.836-1.272l-0.179-0.124
			h3.264v-4.7C29.506,274.313,21.382,265.156,10.606,265.156L10.606,265.156z M6.233,279.568c1.189-1.747,2.75-2.821,4.375-2.821
			c2.24,0,3.229,0.74,3.903,1.465l0.029,0.033l0.032,0.031c0.313,0.326,0.593,0.759,0.833,1.292H6.233L6.233,279.568z
			 M4.521,291.156h16.318l-0.888,1.218c-3.19,4.369-4.998,6.195-7.931,6.195C8.619,298.572,5.56,295.352,4.521,291.156
			L4.521,291.156z" class="vsUyaRTL_3"></path>
	</g>
	<g>
		<path fill="#FFF100" stroke="#DB2018" stroke-width="0.25" stroke-miterlimit="10" d="M27.895,306.47v-6.89h6.519
			c0.249,0,0.413-0.023,0.511-0.042c0.035-0.22,0.035-0.58,0.035-0.716v-39.243c-0.579-0.047-1.517-0.089-3.02-0.089h-2.349v-6.889
			h2.349c2.098,0,4.802-0.896,7.82-2.595l3.502-1.969v50.785c0,0.378,0.024,0.615,0.052,0.756c0.021,0.002,7.083,0.002,7.083,0.002
			v6.89H27.895z" class="vsUyaRTL_4"></path>
		<path fill="#ED6B1A" stroke="#DB2018" stroke-width="0.25" stroke-miterlimit="10" d="M40.911,252.053v46.769
			c0,1.626,0.353,3.106,2.474,3.106h4.662v2.19H30.245v-2.19h4.168c2.825,0,2.896-1.837,2.896-3.106v-39.702
			c0-0.708-0.07-1.201-0.425-1.485c-0.352-0.354-2.048-0.496-4.944-0.496v-2.188C34.484,254.949,37.521,253.961,40.911,252.053
			 M45.612,244.018l-7.002,3.938c-2.629,1.479-4.999,2.293-6.669,2.293h-4.7v4.7v2.188v4.701h4.7c0.238,0,0.461,0,0.669,0.003
			v35.386h-2.362h-4.701v4.7v2.189v4.7h4.701h17.801h4.701v-4.7v-2.189v-4.7h-4.701h-2.434v-45.174v-8.035H45.612z" class="vsUyaRTL_5"></path>
	</g>
	<g>
		<path fill="#FFF100" stroke="#DB2018" stroke-width="0.25" stroke-miterlimit="10" d="M50.287,306.47v-6.89h6.519
			c0.248,0,0.411-0.023,0.509-0.042c0.036-0.22,0.036-0.58,0.036-0.716v-39.243c-0.579-0.047-1.516-0.089-3.018-0.089h-2.35v-6.889
			h2.35c2.098,0,4.8-0.897,7.82-2.595l3.503-1.967v50.784c0,0.378,0.025,0.615,0.052,0.757c0.021,0.001,7.083,0.001,7.083,0.001
			v6.891H50.287V306.47z" class="vsUyaRTL_6"></path>
		<path fill="#ED6B1A" stroke="#DB2018" stroke-width="0.25" stroke-miterlimit="10" d="M63.305,252.053v46.769
			c0,1.626,0.354,3.106,2.473,3.106h4.662v2.19H52.639v-2.19h4.167c2.827,0,2.895-1.837,2.895-3.106v-39.702
			c0-0.708-0.068-1.201-0.425-1.485c-0.352-0.354-2.048-0.496-4.944-0.496v-2.188C56.875,254.949,59.912,253.961,63.305,252.053
			 M68.006,244.018l-7.003,3.938c-2.629,1.479-4.999,2.293-6.667,2.293h-4.7v4.7v2.188v4.701h4.7c0.236,0,0.459,0,0.667,0.003
			v35.386h-2.362h-4.701v4.7v2.189v4.7h4.701H70.44h4.701v-4.7v-2.189v-4.7H70.44h-2.434v-45.174V244.018L68.006,244.018z" class="vsUyaRTL_7"></path>
	</g>
	<g>
		<path fill="#FFF100" stroke="#DB2018" stroke-width="0.25" stroke-miterlimit="10" d="M91.562,307.952
			c-12.635,0-18.388-10.337-18.388-19.942c0-15.2,10.998-20.717,18.388-20.717c8.649,0,17.962,6.482,17.962,20.717
			C109.524,297.923,103.354,307.952,91.562,307.952z M91.562,274.254c-2.754,0-5.056,1.045-7.031,3.197
			c-1.783,2.006-2.701,5.571-2.701,10.561c0,3.044,0.702,12.979,9.73,12.979c8.791,0,9.234-10.811,9.234-12.979
			c0-5.014-0.886-8.62-2.634-10.715C96.409,275.259,94.241,274.254,91.562,274.254z" class="vsUyaRTL_8"></path>
		<path fill="#ED6B1A" stroke="#DB2018" stroke-width="0.25" stroke-miterlimit="10" d="M91.562,269.645
			c8.053,0,15.611,6.004,15.611,18.368c0,7.841-4.451,17.593-15.611,17.593c-11.8,0-16.038-10.033-16.038-17.593
			C75.523,274.448,85.204,269.645,91.562,269.645 M91.562,303.342c9.254,0,11.584-9.395,11.584-15.33
			c0-5.581-1.059-9.678-3.177-12.221c-2.19-2.545-5.017-3.887-8.407-3.887c-3.462,0-6.358,1.342-8.76,3.956
			c-2.262,2.544-3.321,6.643-3.321,12.15C79.481,293.169,81.387,303.342,91.562,303.342 M91.562,264.944
			c-10.053,0-20.738,8.085-20.738,23.069c0,10.738,6.491,22.292,20.738,22.292c13.335,0,20.312-11.213,20.312-22.292
			C111.874,272.161,101.345,264.944,91.562,264.944L91.562,264.944z M86.291,279.009c1.54-1.662,3.167-2.405,5.271-2.405
			c1.981,0,3.521,0.717,4.842,2.252c1.301,1.56,2.042,4.83,2.042,9.154c0,2.494-0.496,10.63-6.884,10.63
			c-6.661,0-7.381-7.434-7.381-10.63C84.18,282.579,85.322,280.116,86.291,279.009L86.291,279.009z" class="vsUyaRTL_9"></path>
	</g>
	<g>
		<path fill="#FFF100" stroke="#DB2018" stroke-width="0.25" stroke-miterlimit="10" d="M157.115,307.88
			c-3.216,0-4.82-1.672-5.646-3.577c-3.401,2.377-7.343,3.577-11.733,3.577c-5.494,0-11.038-3.348-11.038-10.825
			c0-3.613,1.52-6.615,4.518-8.927c3.345-2.544,8.849-4.343,17.241-5.614v-2.626c0-3.244-3.204-5.421-6.199-5.421
			c-3.72,0-5.057,2.117-5.149,2.508l0.006,0.508c0.251,1.61-0.037,2.925-0.861,3.911c-0.564,0.675-1.634,1.481-3.535,1.481
			c-2.98,0-4.541-2.288-4.541-4.541c0-6.032,6.185-10.757,14.078-10.757c8.956,0,14.502,6.391,14.502,12.312c0,0,0,16.702,0,16.9
			l0.247-0.687l6.086,3.26l-0.58,1.854C163.075,305.827,160.792,307.88,157.115,307.88z M150.456,289.637
			c-5.259,1.065-9.074,2.402-11.361,3.981c-1.453,0.922-2.094,1.999-2.094,3.437c0,2.569,2.41,3.936,4.148,3.936
			c3.327,0,8.672-2.452,9.306-6.163V289.637z" class="vsUyaRTL_10"></path>
		<path fill="#ED6B1A" stroke="#DB2018" stroke-width="0.25" stroke-miterlimit="10" d="M144.258,269.928
			c7.488,0,12.15,5.086,12.15,9.96v16.391c0,2.612,0,7.063,1.484,7.063c0.637,0,1.482-1.342,2.403-3.885l1.977,1.06
			c-1.413,4.521-3.32,5.017-5.157,5.017c-3.744,0-4.027-3.464-4.239-5.863l-2.048,2.188c-3.11,2.402-6.784,3.676-11.092,3.676
			c-3.179,0-8.688-1.624-8.688-8.477c0-2.827,1.129-5.158,3.602-7.067c3.25-2.47,9.256-4.236,18.155-5.437v-4.664
			c0-4.734-4.45-7.771-8.549-7.771c-5.085,0-7.488,3.248-7.488,4.732v0.848c0.141,0.776,0.426,2.828-2.049,2.828
			c-1.765,0-2.191-1.342-2.191-2.19C132.529,273.954,137.404,269.928,144.258,269.928 M141.148,303.342
			c4.451,0,10.949-3.177,11.657-8.336v-8.194c-7.063,1.201-12.081,2.826-15.047,4.872c-2.122,1.342-3.11,3.179-3.11,5.372
			C134.65,300.87,138.04,303.342,141.148,303.342 M144.258,265.227c-9.211,0-16.429,5.756-16.429,13.107
			c0,3.502,2.356,6.235,5.65,6.789c-0.603,0.358-1.162,0.733-1.676,1.125c-3.58,2.762-5.457,6.494-5.457,10.808
			c0,9.051,6.941,13.175,13.389,13.175c4.017,0,7.705-0.909,11.001-2.711c1.499,1.805,3.628,2.711,6.378,2.711
			c4.742,0,7.896-2.718,9.644-8.314l1.161-3.711l-3.429-1.835l-1.978-1.058l-1.405-0.752v-14.672
			C161.108,272.839,154.667,265.227,144.258,265.227L144.258,265.227z M141.504,277.634c0.367-0.317,1.19-0.816,2.753-0.816
			c1.606,0,3.848,1.167,3.848,3.071v0.623c-2.838,0.49-5.342,1.047-7.54,1.688C141.201,281.174,141.718,279.683,141.504,277.634
			L141.504,277.634z M141.148,298.642c-0.625,0-1.798-0.545-1.798-1.586c0-0.382,0-0.817,0.92-1.4l0.079-0.05l0.077-0.052
			c1.2-0.828,3.456-1.923,7.677-2.979v2.018C147.581,296.673,143.795,298.642,141.148,298.642L141.148,298.642z" class="vsUyaRTL_11"></path>
	</g>
	<g>
		<path fill="#FFF100" stroke="#DB2018" stroke-width="0.25" stroke-miterlimit="10" d="M183.234,306.47v-6.89h4.894
			c0.404,0,0.404-0.084,0.404-0.336V280.24c0-1.502-0.459-4.996-4.715-4.996c-3.018,0-7.12,2.428-8.316,5.727
			c0,0,0,18.567,0.001,18.601l4.941,0.008v6.89h-18.405v-6.89h4.471c0.317,0,0.536-0.012,0.686-0.023
			c0-0.03,0.002-21.208,0.002-21.208c-0.286-0.047-0.766-0.093-1.566-0.093c-0.454,0-0.922,0.014-1.393,0.026l-2.413,0.064v-6.953
			h2.351c2.046,0,4.74-0.941,7.788-2.718l3.535-2.062v4.571c2.772-1.896,6.088-2.83,9.941-2.83c7.133,0,11.392,4.444,11.392,11.886
			v19.004c0,0.225,0.046,0.305,0.046,0.306l0,0c0.01,0,0.086,0.03,0.217,0.03h5.176v6.89H183.234L183.234,306.47z" class="vsUyaRTL_12"></path>
		<path fill="#ED6B1A" stroke="#DB2018" stroke-width="0.25" stroke-miterlimit="10" d="M185.441,270.703
			c7.206,0,9.042,5.088,9.042,9.536v19.004c0,1.837,1.272,2.685,2.613,2.685h2.826v2.19h-14.341v-2.19h2.543
			c1.555,0,2.754-0.989,2.754-2.685V280.24c0-3.602-1.977-7.346-7.064-7.346c-3.956,0-9.254,3.037-10.667,7.701v18.863
			c0,1.839,0.989,2.472,2.188,2.472h2.754v2.189h-13.706v-2.189h2.121c1.695,0,3.038-0.213,3.038-2.472V277.84
			c0-1.673-1.794-1.932-3.916-1.932c-0.475,0-0.962,0.012-1.454,0.026v-2.189c2.543,0,5.582-1.062,8.974-3.038v5.863l2.261-2.332
			C178.025,271.832,181.344,270.703,185.441,270.703 M177.853,262.522l-7.07,4.121c-3.576,2.086-5.671,2.399-6.604,2.399h-4.7v4.7
			v2.188v4.826l4.826-0.127c0.181-0.004,0.363-0.01,0.543-0.014v16.612h-0.457h-4.701v4.7v2.19v4.699h4.701h13.704h4.701h2.79
			h14.341h4.7v-4.699v-2.19v-4.7h-4.7h-0.741V280.24c0-8.78-5.265-14.236-13.742-14.236c-2.775,0-5.309,0.436-7.591,1.304V262.522
			L177.853,262.522z M177.853,281.428c1.002-2.166,3.932-3.835,5.966-3.835c0.884,0,2.365,0,2.365,2.646v16.989h-0.598h-4.7h-2.79
			h-0.243V281.428L177.853,281.428z" class="vsUyaRTL_13"></path>
	</g>
	<g>
		<path fill="#FFF100" stroke="#DB2018" stroke-width="0.25" stroke-miterlimit="10" d="M218.077,306.962
			c-9.661,0-16.407-8.258-16.407-20.079c0-10.218,7.9-18.53,17.609-18.53c2.648,0,5.052,0.54,7.187,1.614V259.57
			c-0.915-0.08-2.422-0.08-3.09-0.08h-2.35v-6.889h2.35c2.111,0,4.771-0.877,7.91-2.605l3.485-1.919v49.966
			c0,1.536,0.392,1.536,1.041,1.536h5.247v6.89h-14.591v-1.5C224.183,306.365,221.531,306.962,218.077,306.962z M219.28,275.527
			c-4.449,0-8.953,3.899-8.953,11.356c0,4.795,1.828,12.909,8.671,12.909c3.865,0,6.688-2.902,7.47-5.718v-14.926
			C225.689,277.999,223.115,275.527,219.28,275.527z" class="vsUyaRTL_14"></path>
		<path fill="#ED6B1A" stroke="#DB2018" stroke-width="0.25" stroke-miterlimit="10" d="M232.421,252.053v45.99
			c0,2.968,1.553,3.885,3.389,3.885h2.899v2.19h-9.891v-4.521c-2.684,3.461-5.439,5.014-10.738,5.014
			c-8.336,0-14.057-7.135-14.057-17.729c0-8.549,6.498-16.179,15.257-16.179c3.816,0,6.993,1.271,9.538,3.887v-15.473
			c0-1.767-0.565-1.979-5.439-1.979v-2.188C225.922,254.949,228.957,253.961,232.421,252.053 M218.997,302.143
			c5.159,0,8.901-3.887,9.821-7.773v-15.825c-0.779-1.766-4.381-5.368-9.538-5.368c-5.369,0-11.303,4.591-11.303,13.707
			C207.976,293.453,210.873,302.143,218.997,302.143 M237.122,244.099l-6.969,3.836c-3.47,1.913-5.6,2.313-6.774,2.313h-4.701v4.7
			v2.188v4.701h4.701c0.261,0,0.507,0,0.738,0.001v4.747c-1.521-0.39-3.135-0.586-4.835-0.586c-11.004,0-19.958,9.366-19.958,20.88
			c0,13.208,7.714,22.431,18.758,22.431c2.267,0,4.253-0.241,6.038-0.761v0.267h4.7h9.891h4.7v-4.7v-2.189v-4.7h-4.7h-1.586v-45.174
			v-7.954H237.122z M218.997,297.443c-6.249,0-6.32-10.456-6.32-10.56c0-6.607,3.951-9.005,6.603-9.005
			c2.357,0,4.062,1.313,4.836,2.111v13.728C223.556,295.307,221.839,297.443,218.997,297.443L218.997,297.443z" class="vsUyaRTL_15"></path>
	</g>
	<g>
		<path fill="#FFF100" stroke="#DB2018" stroke-width="0.25" stroke-miterlimit="10" d="M290.833,306.962l-7.523-20.139
			l-5.912,19.647h-4.617l-12.031-30.411l-0.027-0.128c-0.43-0.123-1.462-0.123-2.169-0.123h-2.35v-6.888h16.852v6.888h-2.351
			c-0.454,0-0.958,0-1.407,0.011l5.712,14.809l4.412-14.82h-4.497v-6.888h16.852v6.888h-2.351c-0.507,0-1.078,0-1.562,0.016
			l5.545,15.042l5.002-15.057h-4.2v-6.889h16.71v6.889h-2.351c-1.166,0-2.608,0-3.021,0.176c0,0.022-0.034,0.105-0.071,0.251
			l-9.89,30.728h-4.755V306.962z" class="vsUyaRTL_16"></path>
		<path fill="#ED6B1A" stroke="#DB2018" stroke-width="0.25" stroke-miterlimit="10" d="M308.573,271.27v2.188
			c-3.25,0-4.805,0-5.368,2.19l-9.327,28.963h-1.413l-9.396-25.15l-7.417,24.656h-1.273l-11.373-28.754
			c-0.426-1.908-2.262-1.908-4.452-1.908v-2.188h12.151v2.188c-2.613,0-4.241,0-4.241,1.414c0,0.14,0.071,0.281,0.141,0.494
			l8.689,22.538l6.5-21.833v-0.141h0.07c0.07-0.423,0.142-0.777,0.142-1.058c0-1.06-0.779-1.414-1.908-1.414h-2.824v-2.188h12.15
			v2.188c-2.754,0-4.239,0-4.239,1.484c0,0.282,0.07,0.636,0.212,0.988l8.124,22.041l7.417-22.323
			c0.07-0.283,0.141-0.495,0.141-0.708c0-1.129-0.776-1.484-1.835-1.484h-2.685v-2.188h12.014 M313.273,266.569h-4.7h-12.01h-2.435
			h-4.7h-12.151h-1.87h-4.701h-12.15h-4.7v4.701v2.188v4.7h4.7c0.157,0,0.328,0,0.502,0.002l10.951,27.687l1.176,2.971h3.195h1.273
			h3.494l1.008-3.346l3.395-11.291l4.512,12.076l1.143,3.055h3.261h1.415h3.424l1.051-3.259l8.979-27.891
			c0.397-0.006,0.841-0.006,1.241-0.006h4.701v-4.7v-2.189v-4.699H313.273z M291.862,278.157h3.292l-1.859,5.599l-2.065-5.599
			H291.862L291.862,278.157z M272.723,278.157h3.548l-1.545,5.194L272.723,278.157L272.723,278.157z" class="vsUyaRTL_17"></path>
	</g>
	<g>
		<path fill="#FFF100" stroke="#DB2018" stroke-width="0.25" stroke-miterlimit="10" d="M328.419,307.811
			c-11.699,0-17.82-9.926-17.82-19.728c0-12.882,8.701-20.578,17.114-20.578c9.437,0,16.551,8.148,16.551,18.95v2.35h-25.347
			c0.311,6.638,4.86,12.114,10.209,12.114c4.271,0,6.766-2.97,9.828-7.161l1.351-1.85l5.771,3.994l-1.533,1.962
			C339.162,304.742,335.557,307.811,328.419,307.811z M335.609,281.918c-0.404-2.4-1.143-4.139-2.24-5.274
			c-1.435-1.544-3.224-2.249-5.657-2.249c-3.505,0-6.648,3.035-8.078,7.521h15.975V281.918z" class="vsUyaRTL_18"></path>
		<path fill="#ED6B1A" stroke="#DB2018" stroke-width="0.25" stroke-miterlimit="10" d="M327.712,269.855
			c7.771,0,14.201,6.642,14.201,16.601H316.55v1.627c0,7.841,5.439,15.187,12.577,15.187c5.439,0,8.477-3.673,11.725-8.126
			l1.838,1.273c-5.583,7.135-8.548,9.041-14.271,9.041c-10.88,0-15.471-9.607-15.471-17.378
			C312.948,276.99,320.296,269.855,327.712,269.855 M316.692,284.268h21.547c-0.283-4.168-1.271-7.278-3.178-9.254
			c-1.836-1.979-4.24-2.967-7.348-2.967C322.345,272.047,317.753,277.061,316.692,284.268 M327.712,265.156
			c-9.566,0-19.465,8.576-19.465,22.928c0,10.97,6.929,22.076,20.171,22.076c8.069,0,12.224-3.495,17.973-10.846l3.07-3.925
			l-4.096-2.838l-1.837-1.272l-0.178-0.124h3.264v-4.7C346.614,274.313,338.488,265.156,327.712,265.156L327.712,265.156z
			 M323.339,279.568c1.189-1.747,2.75-2.821,4.375-2.821c2.239,0,3.232,0.74,3.903,1.465l0.029,0.033l0.032,0.031
			c0.314,0.326,0.592,0.759,0.833,1.292H323.339L323.339,279.568z M321.627,291.156h16.321l-0.889,1.216
			c-3.19,4.371-4.996,6.197-7.931,6.197C325.728,298.572,322.664,295.352,321.627,291.156L321.627,291.156z" class="vsUyaRTL_19"></path>
	</g>
	<g>
		<path fill="#FFF100" stroke="#DB2018" stroke-width="0.25" stroke-miterlimit="10" d="M345.002,306.47v-6.89h6.518
			c0.25,0,0.413-0.023,0.513-0.042c0.034-0.22,0.034-0.58,0.034-0.716v-39.243c-0.579-0.047-1.517-0.089-3.02-0.089h-2.35v-6.889
			h2.35c2.098,0,4.803-0.896,7.821-2.595l3.501-1.969v50.785c0,0.378,0.025,0.615,0.052,0.756c0.021,0.002,7.084,0.002,7.084,0.002
			v6.89H345.002z" class="vsUyaRTL_20"></path>
		<path fill="#ED6B1A" stroke="#DB2018" stroke-width="0.25" stroke-miterlimit="10" d="M358.017,252.053v46.769
			c0,1.626,0.354,3.106,2.473,3.106h4.663v2.19h-17.802v-2.19h4.168c2.826,0,2.896-1.837,2.896-3.106v-39.702
			c0-0.708-0.071-1.201-0.424-1.485c-0.353-0.354-2.05-0.496-4.945-0.496v-2.188C351.59,254.949,354.627,253.961,358.017,252.053
			 M362.719,244.018l-7.003,3.938c-2.628,1.479-4.997,2.293-6.668,2.293h-4.701v4.7v2.188v4.701h4.701c0.239,0,0.462,0,0.668,0.003
			v35.386h-2.363h-4.701v4.7v2.189v4.7h4.701h17.802h4.701v-4.7v-2.189v-4.7h-4.701h-2.435v-45.174V244.018L362.719,244.018z" class="vsUyaRTL_21"></path>
	</g>
	<g>
		<path fill="#FFF100" stroke="#DB2018" stroke-width="0.25" stroke-miterlimit="10" d="M386.134,307.88
			c-10.744,0-18.246-8.433-18.246-20.506c0-12.997,9.748-19.798,19.375-19.798c6.629,0,13.726,4.775,13.726,11.886
			c0,2.188-1.608,4.403-4.682,4.403c-2.629,0-4.612-1.924-4.612-4.474V279.1l0.071-0.285c0.016-0.098,0.167-1.403,0.197-1.629
			c-0.153-0.67-1.52-2.721-4.7-2.721c-4.42,0-10.648,3.655-10.648,11.778c0,13.99,9.368,14.396,10.437,14.396
			c3.293,0,5.603-1.741,9.156-6.898l1.337-1.938l5.657,3.916l-1.257,1.918C397.237,304.82,392.509,307.88,386.134,307.88z" class="vsUyaRTL_22"></path>
		<path fill="#ED6B1A" stroke="#DB2018" stroke-width="0.25" stroke-miterlimit="10" d="M387.262,269.928
			c5.299,0,11.376,3.672,11.376,9.536c0,0.918-0.567,2.051-2.333,2.051c-1.059,0-2.262-0.636-2.262-2.122
			c0.07-0.282,0.211-1.766,0.283-2.119c0-1.766-2.332-5.156-7.066-5.156c-6.005,0-12.999,5.016-12.999,14.129
			c0,14.554,9.397,16.745,12.788,16.745c4.521,0,7.488-2.685,11.092-7.915l1.835,1.273c-4.169,6.357-8.123,9.184-13.846,9.184
			c-9.607,0-15.894-7.488-15.894-18.158C370.239,275.86,378.857,269.928,387.262,269.928 M387.262,265.227
			c-10.532,0-21.724,7.762-21.724,22.148c0,13.459,8.467,22.856,20.595,22.856c9.133,0,14.111-5.712,17.776-11.306l2.515-3.833
			l-3.771-2.608l-1.836-1.273l-3.873-2.681l-2.672,3.88c-3.406,4.942-5.167,5.88-7.223,5.88c-1.351,0-8.086-0.58-8.086-12.045
			c0-6.501,4.854-9.429,8.298-9.429c1.328,0,1.992,0.506,2.275,0.823c-0.003,0.027-0.006,0.052-0.01,0.077
			c-0.029,0.254-0.058,0.51-0.082,0.69l-0.101,0.402v0.582c0,3.825,3.059,6.824,6.962,6.824c4.009,0,7.029-2.905,7.029-6.753
			C403.339,270.671,394.994,265.227,387.262,265.227L387.262,265.227z" class="vsUyaRTL_23"></path>
	</g>
	<g>
		<path fill="#FFF100" stroke="#DB2018" stroke-width="0.25" stroke-miterlimit="10" d="M421.738,307.952
			c-12.635,0-18.387-10.337-18.387-19.942c0-15.2,10.997-20.717,18.387-20.717c8.649,0,17.963,6.482,17.963,20.717
			C439.701,297.923,433.529,307.952,421.738,307.952z M421.738,274.254c-2.756,0-5.055,1.045-7.029,3.197
			c-1.782,2.006-2.701,5.57-2.701,10.561c0,3.044,0.702,12.979,9.73,12.979c8.788,0,9.235-10.811,9.235-12.979
			c0-5.014-0.884-8.62-2.635-10.715C426.586,275.259,424.419,274.254,421.738,274.254z" class="vsUyaRTL_24"></path>
		<path fill="#ED6B1A" stroke="#DB2018" stroke-width="0.25" stroke-miterlimit="10" d="M421.738,269.645
			c8.053,0,15.612,6.004,15.612,18.368c0,7.841-4.45,17.593-15.612,17.593c-11.797,0-16.036-10.033-16.036-17.593
			C405.702,274.448,415.378,269.645,421.738,269.645 M421.738,303.342c9.254,0,11.586-9.395,11.586-15.33
			c0-5.581-1.062-9.678-3.18-12.221c-2.188-2.545-5.014-3.887-8.404-3.887c-3.462,0-6.359,1.342-8.762,3.956
			c-2.26,2.544-3.318,6.643-3.318,12.15C409.658,293.169,411.566,303.342,421.738,303.342 M421.738,264.944
			c-10.053,0-20.736,8.085-20.736,23.069c0,10.738,6.489,22.292,20.736,22.292c13.336,0,20.313-11.213,20.313-22.292
			C442.051,272.161,431.52,264.944,421.738,264.944L421.738,264.944z M421.738,298.642c-6.661,0-7.38-7.434-7.38-10.629
			c0-5.479,1.158-7.932,2.132-9.03c1.497-1.625,3.13-2.377,5.248-2.377c1.982,0,3.521,0.716,4.845,2.252
			c1.299,1.56,2.04,4.832,2.04,9.155C428.622,290.504,428.125,298.642,421.738,298.642L421.738,298.642z" class="vsUyaRTL_25"></path>
	</g>
	<g>
		<path fill="#FFF100" stroke="#DB2018" stroke-width="0.25" stroke-miterlimit="10" d="M439.236,306.47v-6.89h4.47
			c0.554,0,0.891-0.117,0.968-0.173l-0.067-21.487c-0.771-0.131-2.233-0.131-3.091-0.131h-2.351v-6.892h2.351
			c2.193,0,4.889-0.775,8.007-2.304l3.385-1.657v3.298c1.646-1.138,3.705-1.88,6.622-1.88c3.644,0,6.55,1.316,8.643,3.911
			c1.984-1.939,5.135-3.911,9.726-3.911c6.519,0,10.899,4.864,10.899,12.098v18.792c0,0.164,0.017,0.268,0.03,0.329
			c0.007,0,0.135,0.007,0.231,0.007h4.826v6.89H439.236L439.236,306.47z M480.465,299.578c0.014-0.079,0.027-0.188,0.027-0.335
			v-18.792c0-1.565-0.344-5.208-3.513-5.208c-1.992,0-5.424,1.852-6.268,4.668v19.403c0,0.105,0.005,0.188,0.014,0.248
			c0.062,0.009,0.141,0.015,0.248,0.015h4.504H480.465L480.465,299.578z M462.425,299.578c-0.069,0-0.017-0.08-0.017-0.263v-18.509
			c0-5.562-2.856-5.562-3.799-5.562c-1.447,0-4.847,1.323-5.702,5.234v18.905c0,0.072,0.002,0.133,0.008,0.182l4.192,0.013H462.425
			L462.425,299.578z" class="vsUyaRTL_26"></path>
		<path fill="#ED6B1A" stroke="#DB2018" stroke-width="0.25" stroke-miterlimit="10" d="M477.897,270.703
			c4.873,0,8.55,3.391,8.55,9.748v18.792c0,1.695,0.918,2.685,2.611,2.685h2.475v2.19h-13.705v-2.19h2.755
			c1.411,0,2.262-0.989,2.262-2.685v-18.792c0-4.732-2.332-7.558-5.865-7.558c-3.038,0-7.629,2.613-8.619,6.711v19.711
			c0,1.765,0.921,2.612,2.613,2.612h2.403v2.19h-13.919v-2.19h2.968c1.131,0,2.333-0.989,2.333-2.612v-18.509
			c0-3.817-1.342-7.913-6.149-7.913c-2.684,0-7.064,2.189-8.053,7.346v19.145c0,1.697,0.918,2.545,2.332,2.545h2.684v2.189h-13.987
			v-2.189h2.12c1.199,0,3.248-0.354,3.248-2.545v-21.968c0-1.908-2.12-1.979-5.439-1.979v-2.19c2.543,0,5.582-0.848,9.041-2.544v5.3
			c2.543-3.178,4.311-5.3,8.973-5.3c2.969,0,5.229,0.989,6.924,3.18c0.493,0.707,0.919,1.625,1.271,2.757
			C469.068,274.235,472.243,270.703,477.897,270.703 M455.257,263.166l-6.77,3.315c-3.479,1.707-5.711,2.065-6.972,2.065h-4.701v4.7
			v2.191v4.7h4.701c0.199,0,0.458,0,0.739,0.001v17.088h-0.669h-4.7v4.7v2.19v4.699h4.7h13.987h4.7h13.104h4.703h13.453h4.702
			v-4.699v-2.19v-4.7h-4.702h-0.386v-16.776c0-8.507-5.449-14.448-13.25-14.448c-3.55,0-6.857,1.083-9.576,3.042
			c-2.347-2.021-5.293-3.042-8.79-3.042c-1.624,0-3.034,0.202-4.273,0.555L455.257,263.166L455.257,263.166z M473.061,280.314
			c0.67-1.571,2.901-2.72,3.918-2.72c1.079,0,1.164,2.187,1.164,2.858v16.776h-0.315h-4.701h-0.065V280.314L473.061,280.314z
			 M455.257,280.756c0.687-2.6,2.919-3.163,3.353-3.163c0.472,0,1.449,0,1.449,3.213v16.421h-0.601h-4.201V280.756L455.257,280.756z
			" class="vsUyaRTL_27"></path>
	</g>
	<g>
		<path fill="#FFF100" stroke="#DB2018" stroke-width="0.25" stroke-miterlimit="10" d="M511.096,307.811
			c-11.7,0-17.823-9.926-17.823-19.728c0-12.882,8.704-20.578,17.118-20.578c9.434,0,16.55,8.148,16.55,18.95v2.35h-25.345
			c0.311,6.638,4.86,12.114,10.208,12.114c4.272,0,6.769-2.97,9.829-7.161l1.351-1.85l5.771,3.994l-1.536,1.962
			C521.842,304.742,518.236,307.811,511.096,307.811z M518.279,281.918c-0.408-2.388-1.154-4.155-2.233-5.274
			c-1.436-1.544-3.224-2.249-5.654-2.249c-3.505,0-6.649,3.035-8.078,7.521h15.966V281.918z" class="vsUyaRTL_28"></path>
		<path fill="#ED6B1A" stroke="#DB2018" stroke-width="0.25" stroke-miterlimit="10" d="M510.391,269.855
			c7.77,0,14.2,6.642,14.2,16.601h-25.362v1.627c0,7.841,5.438,15.187,12.574,15.187c5.438,0,8.478-3.673,11.728-8.126l1.837,1.273
			c-5.584,7.135-8.55,9.041-14.271,9.041c-10.878,0-15.472-9.607-15.472-17.378C495.625,276.99,502.973,269.855,510.391,269.855
			 M499.37,284.268h21.547c-0.282-4.168-1.274-7.278-3.18-9.254c-1.836-1.979-4.237-2.967-7.344-2.967
			C505.017,272.047,500.428,277.061,499.37,284.268 M510.391,265.156c-9.568,0-19.468,8.576-19.468,22.928
			c0,10.97,6.932,22.076,20.173,22.076c8.069,0,12.226-3.495,17.977-10.846l3.071-3.926l-4.101-2.836l-1.836-1.272l-0.181-0.124
			h3.264v-4.7C529.29,274.313,521.168,265.156,510.391,265.156L510.391,265.156z M505.982,279.568
			c1.184-1.758,2.747-2.821,4.409-2.821c2.24,0,3.228,0.74,3.898,1.465l0.033,0.033l0.031,0.033c0.313,0.325,0.592,0.757,0.833,1.29
			H505.982L505.982,279.568z M504.302,291.156h16.321l-0.888,1.216c-3.191,4.371-4.998,6.197-7.933,6.197
			C508.404,298.572,505.342,295.352,504.302,291.156L504.302,291.156z" class="vsUyaRTL_29"></path>
	</g>
	<g>
		<path fill="#FFF100" stroke="#DB2018" stroke-width="0.25" stroke-miterlimit="10" d="M560.052,306.962
			c-2.788,0-9.274-1.122-9.274-11.53V275.95h-6.428v-6.89h2.35c3.876,0,5.702-1.245,5.702-12.628v-2.35h6.68v14.978h9.821v6.89
			h-9.821v19.482c0,4.642,0.535,4.642,1.958,4.642c0.3,0,1.974-0.189,5.31-3.944l1.615-1.82l5.006,4.778l-1.6,1.697
			C567.761,304.615,565.282,306.962,560.052,306.962z" class="vsUyaRTL_30"></path>
		<path fill="#ED6B1A" stroke="#DB2018" stroke-width="0.25" stroke-miterlimit="10" d="M556.73,256.432v14.978h9.823v2.19h-9.823
			v21.832c0,4.236,0.355,6.993,4.31,6.993c1.839,0,4.24-1.555,7.066-4.735l1.553,1.484c-3.461,3.674-5.369,5.44-9.606,5.44
			c-5.723,0-6.924-4.872-6.924-9.182v-21.832H546.7v-2.189c6.565,0,8.053-4.38,8.053-14.979h1.978 M561.43,251.732h-4.7h-1.978
			h-4.701v4.7c0,1.781,0,7.196-1.076,9.386c-0.247,0.498-0.44,0.891-2.274,0.891h-4.702v4.701v2.19v4.7h4.702h1.729v17.132
			c0,12.883,8.898,13.881,11.624,13.881c6.513,0,9.679-3.36,13.028-6.914l3.203-3.401l-3.379-3.224l-1.555-1.484l-3.523-3.364
			l-3.233,3.643c-1.474,1.656-2.502,2.458-3.105,2.841c-0.035-0.465-0.056-1.104-0.056-1.979v-17.133h5.122h4.7v-4.7v-2.19v-4.7
			h-4.7h-5.122V256.43v-4.699H561.43z" class="vsUyaRTL_31"></path>
	</g>
	<g>
		<path fill="#FFF100" stroke="#DB2018" stroke-width="0.25" stroke-miterlimit="10" d="M589.793,307.952
			c-12.636,0-18.389-10.337-18.389-19.942c0-15.2,10.998-20.717,18.389-20.717c8.649,0,17.961,6.482,17.961,20.717
			C607.754,297.923,601.584,307.952,589.793,307.952z M589.793,274.254c-2.755,0-5.057,1.045-7.031,3.197
			c-1.782,2.006-2.698,5.571-2.698,10.561c0,3.044,0.699,12.979,9.729,12.979c8.787,0,9.234-10.811,9.234-12.979
			c0-5.018-0.885-8.623-2.633-10.715C594.638,275.259,592.47,274.254,589.793,274.254z" class="vsUyaRTL_32"></path>
		<path fill="#ED6B1A" stroke="#DB2018" stroke-width="0.25" stroke-miterlimit="10" d="M589.793,269.645
			c8.052,0,15.61,6.004,15.61,18.368c0,7.841-4.45,17.593-15.61,17.593c-11.8,0-16.039-10.033-16.039-17.593
			C573.753,274.448,583.431,269.645,589.793,269.645 M589.793,303.342c9.251,0,11.584-9.395,11.584-15.33
			c0-5.581-1.058-9.678-3.178-12.221c-2.19-2.545-5.016-3.887-8.405-3.887c-3.463,0-6.361,1.342-8.763,3.956
			c-2.259,2.544-3.316,6.643-3.316,12.15C577.711,293.169,579.619,303.342,589.793,303.342 M589.793,264.944
			c-10.055,0-20.738,8.085-20.738,23.069c0,10.738,6.492,22.292,20.738,22.292c13.334,0,20.313-11.213,20.313-22.292
			C610.105,272.161,599.574,264.944,589.793,264.944L589.793,264.944z M584.52,279.008c1.538-1.662,3.164-2.405,5.271-2.405
			c1.981,0,3.521,0.717,4.844,2.254c1.3,1.556,2.039,4.827,2.039,9.152c0,2.494-0.493,10.63-6.883,10.63
			c-6.66,0-7.381-7.434-7.381-10.63C582.413,282.577,583.552,280.116,584.52,279.008L584.52,279.008z" class="vsUyaRTL_33"></path>
	</g>
	<g>
		<path fill="#FFF100" stroke="#DB2018" stroke-width="0.25" stroke-miterlimit="10" d="M625.017,306.47v-6.89h4.474
			c0.554,0,0.891-0.117,0.968-0.175l-0.067-21.485c-0.771-0.131-2.233-0.131-3.091-0.131h-2.351v-6.892h2.351
			c2.193,0,4.889-0.775,8.008-2.304l3.386-1.657v3.297c1.646-1.137,3.705-1.879,6.621-1.879c3.64,0,6.546,1.315,8.641,3.911
			c1.984-1.939,5.134-3.911,9.726-3.911c6.518,0,10.899,4.864,10.899,12.098v18.792c0,0.164,0.017,0.268,0.029,0.329
			c0.007-0.001,0.138,0.007,0.235,0.007h4.82v6.89H625.017L625.017,306.47z M666.251,299.578c0.015-0.079,0.025-0.188,0.025-0.335
			v-18.792c0-1.565-0.342-5.208-3.51-5.208c-1.994,0-5.427,1.852-6.27,4.667v19.404c0,0.105,0.007,0.188,0.015,0.248
			c0.061,0.009,0.144,0.015,0.25,0.015h4.501H666.251z M648.209,299.578c-0.068,0-0.019-0.08-0.019-0.263v-18.509
			c0-5.562-2.854-5.562-3.794-5.562c-1.45,0-4.849,1.323-5.702,5.234v18.905c0,0.072,0.001,0.133,0.006,0.182l4.194,0.013H648.209
			L648.209,299.578z" class="vsUyaRTL_34"></path>
		<path fill="#ED6B1A" stroke="#DB2018" stroke-width="0.25" stroke-miterlimit="10" d="M663.681,270.703
			c4.873,0,8.548,3.391,8.548,9.748v18.792c0,1.695,0.92,2.685,2.616,2.685h2.472v2.19h-13.706v-2.19h2.755
			c1.413,0,2.26-0.989,2.26-2.685v-18.792c0-4.732-2.329-7.558-5.861-7.558c-3.036,0-7.631,2.613-8.621,6.711v19.711
			c0,1.765,0.921,2.612,2.617,2.612h2.4v2.19h-13.918v-2.19h2.967c1.133,0,2.331-0.989,2.331-2.612v-18.509
			c0-3.817-1.342-7.913-6.145-7.913c-2.687,0-7.065,2.189-8.055,7.346v19.145c0,1.697,0.919,2.545,2.33,2.545h2.687v2.189h-13.991
			v-2.189h2.123c1.199,0,3.247-0.354,3.247-2.545v-21.968c0-1.908-2.119-1.979-5.438-1.979v-2.19c2.544,0,5.58-0.848,9.041-2.544
			v5.3c2.543-3.178,4.31-5.3,8.974-5.3c2.969,0,5.225,0.989,6.924,3.18c0.491,0.707,0.916,1.625,1.271,2.757
			C654.851,274.235,658.029,270.703,663.681,270.703 M641.044,263.168l-6.767,3.313c-3.482,1.708-5.717,2.065-6.977,2.065h-4.7v4.7
			v2.191v4.7h4.7c0.2,0,0.459,0,0.74,0.001v17.088h-0.671h-4.702v4.7v2.19v4.699h4.702h13.991h4.702h13.098h4.701h13.458h4.7v-4.699
			v-2.19v-4.7h-4.7h-0.388v-16.776c0-8.507-5.449-14.448-13.247-14.448c-3.55,0-6.859,1.083-9.578,3.042
			c-2.348-2.021-5.293-3.042-8.791-3.042c-1.622,0-3.029,0.202-4.271,0.555v-3.39H641.044z M658.845,280.312
			c0.669-1.569,2.901-2.719,3.919-2.719c1.078,0,1.162,2.187,1.162,2.858v16.776h-0.315h-4.698h-0.067V280.312L658.845,280.312z
			 M641.044,280.755c0.684-2.598,2.919-3.161,3.354-3.161c0.469,0,1.443,0,1.443,3.213v16.421h-0.596h-4.201V280.755
			L641.044,280.755z" class="vsUyaRTL_35"></path>
	</g>
	<g>
		<path fill="#FFF100" stroke="#DB2018" stroke-width="0.25" stroke-miterlimit="10" d="M688.547,314.101
			c-3.66,0-7.365-2.021-7.365-5.885c0-3.072,2.285-4.682,4.54-4.682c1.254,0,2.62,0.487,3.951,1.408
			c0.556,0.37,0.775,0.429,0.799,0.435c0.861-0.008,2.095-0.286,3.179-2.452l0.499-1.073l-11.343-24.654
			c-0.656-1.46-0.656-1.46-3.373-1.46h-2.35v-6.889h17.98v6.889h-3.854l7.48,16.5l7.798-16.5h-4.538v-6.889h18.476v6.889h-4.964
			c-1.227,0-1.989,0.356-2.264,1.056l-12.843,27.607C696.496,312.837,691.302,314.101,688.547,314.101z" class="vsUyaRTL_36"></path>
		<path fill="#ED6B1A" stroke="#DB2018" stroke-width="0.25" stroke-miterlimit="10" d="M718.077,271.199v2.189h-2.614
			c-1.062,0-3.531,0.212-4.451,2.543l-12.785,27.48c-2.686,5.866-6.289,8.336-9.68,8.336c-2.261,0-5.014-1.059-5.014-3.531
			c0-2.119,1.766-2.33,2.188-2.33c0.775,0,1.692,0.353,2.614,0.989c0.845,0.563,1.48,0.847,2.047,0.847
			c2.259,0,4.097-1.2,5.372-3.743l0.985-2.122l-11.796-25.643c-1.271-2.827-2.332-2.827-5.51-2.827v-2.189h13.281v2.189h-3.109
			c-0.917,0-1.342,0.355-1.342,0.989c0,0.425,0.144,0.918,0.427,1.482l9.959,21.972l10.315-21.829
			c0.213-0.495,0.355-0.99,0.355-1.342c0-0.849-0.637-1.273-1.839-1.273h-3.177v-2.189h13.771 M722.777,266.499h-4.7h-13.776h-4.699
			v4.7v2.189v4.701h3.175l-4.038,8.552l-3.881-8.552h2.557v-4.701v-2.189v-4.7h-4.699h-13.281h-4.7v4.7v2.189v4.701h4.7
			c0.393,0,0.838,0,1.202,0.009c0.005,0.017,0.014,0.032,0.021,0.046l10.904,23.704l-0.036,0.079
			c-0.28,0.549-0.512,0.82-0.699,0.957c-1.67-1.111-3.43-1.699-5.104-1.699c-3.34,0-6.89,2.465-6.89,7.031
			c0,4.693,4.178,8.233,9.718,8.233c3.315,0,9.538-1.442,13.95-11.083l12.688-27.264c0.076-0.007,0.167-0.013,0.277-0.013h2.612
			h4.701v-4.701v-2.189v-4.7H722.777z" class="vsUyaRTL_37"></path>
	</g>
	<g>
		<path fill="#FFF100" stroke="#DB2018" stroke-width="0.25" stroke-miterlimit="10" d="M770.133,306.962l-7.528-20.139
			l-5.908,19.647h-4.615l-12.032-30.411l-0.026-0.128c-0.433-0.123-1.466-0.123-2.17-0.123h-2.352v-6.888h16.853v6.888h-2.35
			c-0.455,0-0.959,0-1.407,0.011l5.714,14.809l4.408-14.82h-4.496v-6.888h16.853v6.888h-2.35c-0.508,0-1.078,0-1.563,0.016
			l5.545,15.042l5.003-15.057h-4.2v-6.889h16.707v6.889h-2.35c-1.167,0-2.609,0-3.021,0.176c0,0.022-0.034,0.105-0.075,0.252
			l-9.886,30.727h-4.754V306.962z" class="vsUyaRTL_38"></path>
		<path fill="#ED6B1A" stroke="#DB2018" stroke-width="0.25" stroke-miterlimit="10" d="M787.87,271.27v2.188
			c-3.251,0-4.804,0-5.368,2.19l-9.326,28.963h-1.411l-9.397-25.15l-7.417,24.656h-1.271l-11.373-28.754
			c-0.427-1.908-2.262-1.908-4.452-1.908v-2.188h12.152v2.188c-2.615,0-4.239,0-4.239,1.414c0,0.14,0.07,0.281,0.141,0.494
			l8.688,22.538l6.5-21.833v-0.141h0.071c0.071-0.423,0.142-0.777,0.142-1.058c0-1.06-0.778-1.414-1.907-1.414h-2.826v-2.188h12.15
			v2.188c-2.757,0-4.238,0-4.238,1.484c0,0.282,0.072,0.636,0.212,0.988l8.124,22.041l7.418-22.323
			c0.07-0.283,0.142-0.495,0.142-0.708c0-1.129-0.778-1.484-1.837-1.484h-2.684v-2.188h12.008 M792.571,266.569h-4.701h-12.008
			h-2.436h-4.701h-12.152h-1.868h-4.699h-12.152h-4.699v4.701v2.188v4.7h4.699c0.157,0,0.329,0,0.5,0.002l10.951,27.687l1.176,2.971
			h3.196h1.272h3.493l1.008-3.346l3.397-11.292l4.513,12.077l1.142,3.055h3.262h1.411h3.424l1.051-3.259l8.978-27.891
			c0.397-0.006,0.843-0.006,1.241-0.006h4.702v-4.7v-2.189L792.571,266.569L792.571,266.569z M771.16,278.157h3.294l-1.859,5.599
			l-2.064-5.599H771.16L771.16,278.157z M752.021,278.157h3.549l-1.547,5.194L752.021,278.157L752.021,278.157z" class="vsUyaRTL_39"></path>
	</g>
	<g>
		<path fill="#FFF100" stroke="#DB2018" stroke-width="0.25" stroke-miterlimit="10" d="M807.719,307.811
			c-11.701,0-17.822-9.926-17.822-19.728c0-12.882,8.699-20.578,17.113-20.578c9.436,0,16.554,8.148,16.554,18.95v2.35h-25.349
			c0.311,6.638,4.86,12.114,10.209,12.114c4.272,0,6.768-2.97,9.827-7.161l1.352-1.851l5.767,3.995l-1.533,1.962
			C818.46,304.742,814.855,307.811,807.719,307.811z M814.903,281.918c-0.408-2.388-1.158-4.155-2.236-5.274
			c-1.435-1.544-3.224-2.249-5.656-2.249c-3.502,0-6.647,3.035-8.075,7.521h15.968V281.918z" class="vsUyaRTL_40"></path>
		<path fill="#ED6B1A" stroke="#DB2018" stroke-width="0.25" stroke-miterlimit="10" d="M807.01,269.855
			c7.771,0,14.201,6.642,14.201,16.601h-25.363v1.627c0,7.841,5.44,15.187,12.576,15.187c5.438,0,8.476-3.673,11.726-8.126
			l1.834,1.273c-5.577,7.135-8.546,9.041-14.267,9.041c-10.88,0-15.473-9.607-15.473-17.378
			C792.246,276.99,799.592,269.855,807.01,269.855 M795.988,284.268h21.548c-0.282-4.168-1.271-7.278-3.18-9.254
			c-1.836-1.979-4.236-2.967-7.346-2.967C801.645,272.047,797.05,277.061,795.988,284.268 M807.01,265.156
			c-9.568,0-19.466,8.576-19.466,22.928c0,10.97,6.93,22.076,20.173,22.076c8.068,0,12.225-3.495,17.972-10.848l3.067-3.922
			l-4.092-2.836l-1.836-1.273l-0.182-0.126h3.264v-4.7C825.911,274.313,817.785,265.156,807.01,265.156L807.01,265.156z
			 M802.635,279.568c1.191-1.747,2.751-2.821,4.374-2.821c2.24,0,3.229,0.74,3.901,1.465l0.031,0.033l0.032,0.033
			c0.313,0.325,0.593,0.757,0.833,1.29H802.635L802.635,279.568z M800.927,291.156h16.318l-0.888,1.216
			c-3.191,4.371-4.996,6.197-7.933,6.197C805.023,298.572,801.964,295.352,800.927,291.156L800.927,291.156z" class="vsUyaRTL_41"></path>
	</g>
	<g>
		<path fill="#FFF100" stroke="#DB2018" stroke-width="0.25" stroke-miterlimit="10" d="M842.402,306.962
			c-3.313,0-6.093-0.895-8.846-2.922l-0.88,2.43h-5.767v-47.165c-0.863-0.098-2.367-0.098-3.019-0.098h-2.353v-6.891h2.353
			c2.207,0,4.935-0.811,7.888-2.349l3.435-1.787v22.425c2.561-1.525,5.445-2.254,8.81-2.254c7.428,0,15.421,5.71,15.421,18.247
			C859.446,296.407,854.111,306.962,842.402,306.962z M835.216,295.999c1.041,1.789,3.949,4.074,7.187,4.074
			c2.471,0,4.343-0.873,5.883-2.746c1.947-2.313,2.927-5.912,2.927-10.728c0-4.071-0.854-7.048-2.543-8.85
			c-1.622-1.677-3.541-2.505-5.842-2.505c-3.609,0-6.647,3.001-7.61,4.584L835.216,295.999L835.216,295.999z" class="vsUyaRTL_42"></path>
		<path fill="#ED6B1A" stroke="#DB2018" stroke-width="0.25" stroke-miterlimit="10" d="M832.865,252.053v23.525
			c3.037-3.322,6.425-4.875,11.159-4.875c6.075,0,13.072,4.734,13.072,15.896c0,8.9-4.664,18.013-14.694,18.013
			c-4.029,0-6.853-1.554-9.891-4.593l-1.482,4.099h-1.768v-45.284c0-1.766-1.06-1.979-5.369-1.979v-2.189
			C826.438,254.666,829.472,253.819,832.865,252.053 M842.402,302.425c3.177,0,5.721-1.205,7.697-3.604
			c2.264-2.685,3.464-6.712,3.464-12.222c0-4.734-1.062-8.196-3.18-10.457c-2.051-2.12-4.593-3.249-7.557-3.249
			c-5.017,0-9.042,4.309-9.959,6.358v17.309C833.995,299.104,837.883,302.425,842.402,302.425 M837.566,244.309l-6.872,3.577
			c-3.306,1.722-5.523,2.081-6.803,2.081h-4.701v4.7v2.19v4.7h4.701c0.235,0,0.46,0,0.67,0.002v42.56v4.701h4.699h1.767h3.296
			l0.459-1.268c2.083,1.047,4.582,1.761,7.619,1.761c13.324,0,19.394-11.775,19.394-22.716c0-13.521-8.939-20.595-17.771-20.595
			c-2.345,0-4.484,0.312-6.459,0.955v-14.905v-7.744H837.566z M837.566,280.568c0.907-1.129,3.007-2.973,5.26-2.973
			c1.652,0,2.979,0.578,4.18,1.816c1.524,1.63,1.855,4.813,1.855,7.19c0,4.245-0.791,7.337-2.354,9.189
			c-1.127,1.367-2.345,1.933-4.105,1.933c-2.089,0-3.988-1.435-4.836-2.461V280.568L837.566,280.568z" class="vsUyaRTL_43"></path>
	</g>
	<g>
		<path fill="#FFF100" stroke="#DB2018" stroke-width="0.25" stroke-miterlimit="10" d="M877.512,307.74
			c-2.692,0-5.507-0.786-8.39-2.334l-1.183,1.274h-3.906l-4.144-13.901l5.317-1.565l0.893,1.714c1.585,3.04,3.274,5.004,5.163,6.002
			l0.136,0.079c1.949,1.204,4.063,1.842,6.113,1.842c2.622,0,5.279-1.426,5.279-4.152c0-2.67-0.991-4.298-6.4-5.786
			c-6.489-1.559-10.052-3.145-11.844-5.274c-1.665-1.748-2.6-4.263-2.6-7.164c0-4.51,4.354-10.758,12.524-10.758
			c2.441,0,4.798,0.503,7.027,1.496l0.977-1.069h3.356l5.42,14.026h-6.076l-0.689-1.107c-2.411-3.876-5.036-6.453-10.015-6.453
			c-3.373,0-4.572,2.084-4.572,3.867c0,1.409,0,2.625,7.612,4.276c7.017,1.843,13.227,4.23,13.227,13.387
			C890.741,301.763,886.105,307.74,877.512,307.74z" class="vsUyaRTL_44"></path>
		<path fill="#ED6B1A" stroke="#DB2018" stroke-width="0.25" stroke-miterlimit="10" d="M874.472,270.067
			c2.683,0,5.228,0.708,7.56,2.051l1.48-1.625h0.708l3.602,9.326h-1.34c-2.686-4.31-5.934-7.56-12.01-7.56
			c-4.523,0-6.924,2.966-6.924,6.215c0,3.676,2.614,5.088,9.466,6.573c6.711,1.764,11.377,3.672,11.377,11.09
			c0,4.379-3.745,9.253-10.879,9.253c-2.757,0-5.725-0.991-8.832-2.967l-1.767,1.908h-1.13l-2.971-9.962l1.204-0.354
			c1.767,3.392,3.745,5.724,6.146,6.995c2.402,1.483,4.945,2.19,7.349,2.19c3.953,0,7.629-2.401,7.629-6.502
			c0-4.872-3.251-6.711-8.127-8.052c-5.58-1.343-9.184-2.755-10.668-4.521c-1.342-1.414-2.048-3.392-2.048-5.652
			C864.302,274.942,867.903,270.067,874.472,270.067 M874.472,265.366c-8.896,0-14.872,6.779-14.872,13.107
			c0,3.414,1.148,6.527,3.244,8.787c0.515,0.594,1.118,1.142,1.835,1.659l-1.989,0.586l-1.203,0.353l-4.524,1.334l1.347,4.52
			l2.967,9.962l1.003,3.359h3.502h1.133h2.054l0.688-0.742c2.663,1.196,5.295,1.799,7.856,1.799c9.751,0,15.578-7.094,15.578-13.953
			c0-5.823-2.298-9.358-5.291-11.618h0.023h6.857l-2.471-6.396l-3.603-9.325l-1.161-3.006h-3.225h-0.708h-2.076l-0.582,0.642
			C878.804,265.724,876.669,265.366,874.472,265.366L874.472,265.366z M872.255,278.634c-0.002-0.042-0.005-0.095-0.005-0.16
			c0-1.007,0.748-1.516,2.223-1.516c3.299,0,5.284,1.192,7.58,4.657c-1.364-0.464-2.686-0.811-3.842-1.115l-0.1-0.026l-0.099-0.024
			C873.927,279.569,872.654,278.933,872.255,278.634L872.255,278.634z M877.512,298.5c-1.613,0-3.301-0.515-4.877-1.488
			l-0.134-0.083l-0.14-0.074c-1.454-0.768-2.819-2.407-4.177-5.01l-0.686-1.319c2.103,0.96,4.813,1.82,8.339,2.673
			c4.604,1.274,4.604,2.208,4.604,3.499C880.44,298.179,878.324,298.5,877.512,298.5L877.512,298.5z" class="vsUyaRTL_45"></path>
	</g>
	<g>
		<path fill="#FFF100" stroke="#DB2018" stroke-width="0.25" stroke-miterlimit="10" d="M891.689,306.47v-6.89h6.589
			c0.5,0,0.757-0.131,0.797-0.164l-0.036-21.309c-0.328-0.064-0.901-0.128-1.877-0.128c-0.387,0-0.774,0.011-1.147,0.02
			l-2.416,0.068v-6.958h2.35c2.187,0,4.827-0.83,7.854-2.471l3.471-1.878v32.626c0,0.112,0.015,0.162,0.015,0.162
			c-0.003-0.013,0.01-0.017,0.029-0.017c0.079,0,0.287,0.049,0.572,0.049h6.59v6.891h-22.789V306.47z M903.224,260.693
			c-3.071,0-5.387-2.409-5.387-5.601c0-3.213,2.214-5.459,5.387-5.459c3.182,0,5.672,2.397,5.672,5.459
			C908.896,258.125,906.299,260.693,903.224,260.693z" class="vsUyaRTL_46"></path>
		<path fill="#ED6B1A" stroke="#DB2018" stroke-width="0.25" stroke-miterlimit="10" d="M903.224,251.982
			c1.837,0,3.322,1.273,3.322,3.109c0,1.836-1.628,3.25-3.322,3.25c-2.051,0-3.037-1.625-3.037-3.25
			C900.185,253.254,901.316,251.982,903.224,251.982 M904.919,270.703v28.681c0,1.979,1.628,2.544,2.969,2.544h4.237v2.19h-18.086
			v-2.19h4.24c1.556,0,3.108-0.708,3.108-2.544v-21.898c0-1.603-2.092-1.859-4.226-1.859c-0.406,0-0.816,0.011-1.214,0.021v-2.19
			C898.559,273.457,901.53,272.541,904.919,270.703 M903.224,247.282c-4.482,0-7.739,3.285-7.739,7.81
			c0,4.533,3.328,7.951,7.739,7.951c4.347,0,8.021-3.641,8.021-7.951C911.246,250.712,907.722,247.282,903.224,247.282
			L903.224,247.282z M909.62,262.81l-6.942,3.761c-2.678,1.45-4.941,2.186-6.73,2.186h-4.702v4.701v2.19v4.833l4.834-0.135
			c0.199-0.005,0.401-0.012,0.608-0.016v16.897h-2.648h-4.699v4.7v2.189v4.7h4.699h18.085h4.702v-4.7v-2.189v-4.7h-4.702h-2.506
			v-26.525v-7.892H909.62z" class="vsUyaRTL_47"></path>
	</g>
	<g>
		<path fill="#FFF100" stroke="#DB2018" stroke-width="0.25" stroke-miterlimit="10" d="M929.008,306.962
			c-2.788,0-9.271-1.122-9.271-11.53V275.95h-6.431v-6.89h2.349c3.879,0,5.706-1.245,5.706-12.628v-2.35h6.678v14.978h9.82v6.89
			h-9.82v19.482c0,4.642,0.534,4.642,1.959,4.642c0.303,0,1.972-0.189,5.31-3.944l1.616-1.82l5.005,4.778l-1.603,1.697
			C936.72,304.615,934.24,306.962,929.008,306.962z" class="vsUyaRTL_48"></path>
		<path fill="#ED6B1A" stroke="#DB2018" stroke-width="0.25" stroke-miterlimit="10" d="M925.689,256.432v14.978h9.82v2.19h-9.82
			v21.832c0,4.236,0.354,6.993,4.309,6.993c1.836,0,4.24-1.555,7.065-4.735l1.554,1.484c-3.461,3.674-5.37,5.44-9.609,5.44
			c-5.721,0-6.92-4.872-6.92-9.182v-21.832h-6.433v-2.189c6.57,0,8.056-4.38,8.056-14.979h1.979 M930.39,251.732h-4.701h-1.979h-4.7
			v4.7c0,1.781,0,7.196-1.079,9.386c-0.245,0.498-0.438,0.891-2.274,0.891h-4.7v4.701v2.19v4.7h4.7h1.731v17.132
			c0,12.883,8.895,13.881,11.621,13.881c6.514,0,9.681-3.36,13.028-6.914l3.204-3.401l-3.379-3.224l-1.553-1.484l-3.524-3.364
			l-3.235,3.643c-1.471,1.654-2.5,2.456-3.105,2.841c-0.033-0.465-0.053-1.104-0.053-1.978v-17.132h5.12h4.701v-4.7v-2.19v-4.701
			h-4.701h-5.12v-10.277v-4.7H930.39z" class="vsUyaRTL_49"></path>
	</g>
	<g>
		<path fill="#FFF100" stroke="#DB2018" stroke-width="0.25" stroke-miterlimit="10" d="M958.183,307.811
			c-11.702,0-17.823-9.926-17.823-19.728c0-12.882,8.703-20.578,17.118-20.578c9.433,0,16.547,8.148,16.547,18.95v2.35h-25.347
			c0.311,6.638,4.86,12.114,10.209,12.114c4.271,0,6.77-2.97,9.831-7.161l1.353-1.85l5.767,3.994l-1.531,1.962
			C968.924,304.742,965.32,307.811,958.183,307.811z M965.366,281.918c-0.409-2.388-1.157-4.155-2.237-5.274
			c-1.435-1.543-3.221-2.247-5.65-2.247c-3.506,0-6.65,3.036-8.078,7.521H965.366z" class="vsUyaRTL_50"></path>
		<path fill="#ED6B1A" stroke="#DB2018" stroke-width="0.25" stroke-miterlimit="10" d="M957.478,269.855
			c7.77,0,14.197,6.642,14.197,16.601h-25.363v1.627c0,7.841,5.441,15.187,12.575,15.187c5.438,0,8.477-3.673,11.729-8.126
			l1.837,1.273c-5.582,7.135-8.551,9.041-14.27,9.041c-10.88,0-15.475-9.607-15.475-17.378
			C942.709,276.99,950.055,269.855,957.478,269.855 M946.457,284.268h21.545c-0.281-4.168-1.273-7.278-3.179-9.254
			c-1.837-1.979-4.237-2.967-7.344-2.967C952.106,272.047,947.515,277.061,946.457,284.268 M957.478,265.156
			c-9.57,0-19.47,8.576-19.47,22.928c0,10.97,6.931,22.076,20.175,22.076c8.065,0,12.223-3.495,17.973-10.846l3.07-3.925
			l-4.095-2.838l-1.836-1.272l-0.183-0.124h3.262v-4.7C976.374,274.313,968.252,265.156,957.478,265.156L957.478,265.156z
			 M953.068,279.568c1.184-1.758,2.748-2.821,4.41-2.821c2.236,0,3.228,0.741,3.9,1.465l0.031,0.033l0.028,0.031
			c0.313,0.326,0.597,0.759,0.835,1.292H953.068L953.068,279.568z M951.388,291.156h16.323l-0.89,1.216
			c-3.192,4.371-5.001,6.197-7.935,6.197C955.488,298.572,952.427,295.352,951.388,291.156L951.388,291.156z" class="vsUyaRTL_51"></path>
	</g>
</g>
<style data-made-with="vivus-instant">.vsUyaRTL_0{stroke-dasharray:402 404;stroke-dashoffset:403;animation:vsUyaRTL_draw_0 6400ms ease-in-out 0ms infinite,vsUyaRTL_fade 6400ms linear 0ms infinite;}.vsUyaRTL_1{stroke-dasharray:798 800;stroke-dashoffset:799;animation:vsUyaRTL_draw_1 6400ms ease-in-out 0ms infinite,vsUyaRTL_fade 6400ms linear 0ms infinite;}.vsUyaRTL_2{stroke-dasharray:217 219;stroke-dashoffset:218;animation:vsUyaRTL_draw_2 6400ms ease-in-out 0ms infinite,vsUyaRTL_fade 6400ms linear 0ms infinite;}.vsUyaRTL_3{stroke-dasharray:419 421;stroke-dashoffset:420;animation:vsUyaRTL_draw_3 6400ms ease-in-out 0ms infinite,vsUyaRTL_fade 6400ms linear 0ms infinite;}.vsUyaRTL_4{stroke-dasharray:169 171;stroke-dashoffset:170;animation:vsUyaRTL_draw_4 6400ms ease-in-out 0ms infinite,vsUyaRTL_fade 6400ms linear 0ms infinite;}.vsUyaRTL_5{stroke-dasharray:336 338;stroke-dashoffset:337;animation:vsUyaRTL_draw_5 6400ms ease-in-out 0ms infinite,vsUyaRTL_fade 6400ms linear 0ms infinite;}.vsUyaRTL_6{stroke-dasharray:169 171;stroke-dashoffset:170;animation:vsUyaRTL_draw_6 6400ms ease-in-out 0ms infinite,vsUyaRTL_fade 6400ms linear 0ms infinite;}.vsUyaRTL_7{stroke-dasharray:336 338;stroke-dashoffset:337;animation:vsUyaRTL_draw_7 6400ms ease-in-out 0ms infinite,vsUyaRTL_fade 6400ms linear 0ms infinite;}.vsUyaRTL_8{stroke-dasharray:197 199;stroke-dashoffset:198;animation:vsUyaRTL_draw_8 6400ms ease-in-out 0ms infinite,vsUyaRTL_fade 6400ms linear 0ms infinite;}.vsUyaRTL_9{stroke-dasharray:393 395;stroke-dashoffset:394;animation:vsUyaRTL_draw_9 6400ms ease-in-out 0ms infinite,vsUyaRTL_fade 6400ms linear 0ms infinite;}.vsUyaRTL_10{stroke-dasharray:218 220;stroke-dashoffset:219;animation:vsUyaRTL_draw_10 6400ms ease-in-out 0ms infinite,vsUyaRTL_fade 6400ms linear 0ms infinite;}.vsUyaRTL_11{stroke-dasharray:425 427;stroke-dashoffset:426;animation:vsUyaRTL_draw_11 6400ms ease-in-out 0ms infinite,vsUyaRTL_fade 6400ms linear 0ms infinite;}.vsUyaRTL_12{stroke-dasharray:244 246;stroke-dashoffset:245;animation:vsUyaRTL_draw_12 6400ms ease-in-out 0ms infinite,vsUyaRTL_fade 6400ms linear 0ms infinite;}.vsUyaRTL_13{stroke-dasharray:458 460;stroke-dashoffset:459;animation:vsUyaRTL_draw_13 6400ms ease-in-out 0ms infinite,vsUyaRTL_fade 6400ms linear 0ms infinite;}.vsUyaRTL_14{stroke-dasharray:259 261;stroke-dashoffset:260;animation:vsUyaRTL_draw_14 6400ms ease-in-out 0ms infinite,vsUyaRTL_fade 6400ms linear 0ms infinite;}.vsUyaRTL_15{stroke-dasharray:520 522;stroke-dashoffset:521;animation:vsUyaRTL_draw_15 6400ms ease-in-out 0ms infinite,vsUyaRTL_fade 6400ms linear 0ms infinite;}.vsUyaRTL_16{stroke-dasharray:299 301;stroke-dashoffset:300;animation:vsUyaRTL_draw_16 6400ms ease-in-out 0ms infinite,vsUyaRTL_fade 6400ms linear 0ms infinite;}.vsUyaRTL_17{stroke-dasharray:534 536;stroke-dashoffset:535;animation:vsUyaRTL_draw_17 6400ms ease-in-out 0ms infinite,vsUyaRTL_fade 6400ms linear 0ms infinite;}.vsUyaRTL_18{stroke-dasharray:217 219;stroke-dashoffset:218;animation:vsUyaRTL_draw_18 6400ms ease-in-out 0ms infinite,vsUyaRTL_fade 6400ms linear 0ms infinite;}.vsUyaRTL_19{stroke-dasharray:419 421;stroke-dashoffset:420;animation:vsUyaRTL_draw_19 6400ms ease-in-out 0ms infinite,vsUyaRTL_fade 6400ms linear 0ms infinite;}.vsUyaRTL_20{stroke-dasharray:169 171;stroke-dashoffset:170;animation:vsUyaRTL_draw_20 6400ms ease-in-out 0ms infinite,vsUyaRTL_fade 6400ms linear 0ms infinite;}.vsUyaRTL_21{stroke-dasharray:336 338;stroke-dashoffset:337;animation:vsUyaRTL_draw_21 6400ms ease-in-out 0ms infinite,vsUyaRTL_fade 6400ms linear 0ms infinite;}.vsUyaRTL_22{stroke-dasharray:186 188;stroke-dashoffset:187;animation:vsUyaRTL_draw_22 6400ms ease-in-out 0ms infinite,vsUyaRTL_fade 6400ms linear 0ms infinite;}.vsUyaRTL_23{stroke-dasharray:371 373;stroke-dashoffset:372;animation:vsUyaRTL_draw_23 6400ms ease-in-out 0ms infinite,vsUyaRTL_fade 6400ms linear 0ms infinite;}.vsUyaRTL_24{stroke-dasharray:197 199;stroke-dashoffset:198;animation:vsUyaRTL_draw_24 6400ms ease-in-out 0ms infinite,vsUyaRTL_fade 6400ms linear 0ms infinite;}.vsUyaRTL_25{stroke-dasharray:393 395;stroke-dashoffset:394;animation:vsUyaRTL_draw_25 6400ms ease-in-out 0ms infinite,vsUyaRTL_fade 6400ms linear 0ms infinite;}.vsUyaRTL_26{stroke-dasharray:323 325;stroke-dashoffset:324;animation:vsUyaRTL_draw_26 6400ms ease-in-out 0ms infinite,vsUyaRTL_fade 6400ms linear 0ms infinite;}.vsUyaRTL_27{stroke-dasharray:637 639;stroke-dashoffset:638;animation:vsUyaRTL_draw_27 6400ms ease-in-out 0ms infinite,vsUyaRTL_fade 6400ms linear 0ms infinite;}.vsUyaRTL_28{stroke-dasharray:217 219;stroke-dashoffset:218;animation:vsUyaRTL_draw_28 6400ms ease-in-out 0ms infinite,vsUyaRTL_fade 6400ms linear 0ms infinite;}.vsUyaRTL_29{stroke-dasharray:419 421;stroke-dashoffset:420;animation:vsUyaRTL_draw_29 6400ms ease-in-out 0ms infinite,vsUyaRTL_fade 6400ms linear 0ms infinite;}.vsUyaRTL_30{stroke-dasharray:176 178;stroke-dashoffset:177;animation:vsUyaRTL_draw_30 6400ms ease-in-out 0ms infinite,vsUyaRTL_fade 6400ms linear 0ms infinite;}.vsUyaRTL_31{stroke-dasharray:351 353;stroke-dashoffset:352;animation:vsUyaRTL_draw_31 6400ms ease-in-out 0ms infinite,vsUyaRTL_fade 6400ms linear 0ms infinite;}.vsUyaRTL_32{stroke-dasharray:197 199;stroke-dashoffset:198;animation:vsUyaRTL_draw_32 6400ms ease-in-out 0ms infinite,vsUyaRTL_fade 6400ms linear 0ms infinite;}.vsUyaRTL_33{stroke-dasharray:393 395;stroke-dashoffset:394;animation:vsUyaRTL_draw_33 6400ms ease-in-out 0ms infinite,vsUyaRTL_fade 6400ms linear 0ms infinite;}.vsUyaRTL_34{stroke-dasharray:323 325;stroke-dashoffset:324;animation:vsUyaRTL_draw_34 6400ms ease-in-out 0ms infinite,vsUyaRTL_fade 6400ms linear 0ms infinite;}.vsUyaRTL_35{stroke-dasharray:637 639;stroke-dashoffset:638;animation:vsUyaRTL_draw_35 6400ms ease-in-out 0ms infinite,vsUyaRTL_fade 6400ms linear 0ms infinite;}.vsUyaRTL_36{stroke-dasharray:226 228;stroke-dashoffset:227;animation:vsUyaRTL_draw_36 6400ms ease-in-out 0ms infinite,vsUyaRTL_fade 6400ms linear 0ms infinite;}.vsUyaRTL_37{stroke-dasharray:447 449;stroke-dashoffset:448;animation:vsUyaRTL_draw_37 6400ms ease-in-out 0ms infinite,vsUyaRTL_fade 6400ms linear 0ms infinite;}.vsUyaRTL_38{stroke-dasharray:299 301;stroke-dashoffset:300;animation:vsUyaRTL_draw_38 6400ms ease-in-out 0ms infinite,vsUyaRTL_fade 6400ms linear 0ms infinite;}.vsUyaRTL_39{stroke-dasharray:534 536;stroke-dashoffset:535;animation:vsUyaRTL_draw_39 6400ms ease-in-out 0ms infinite,vsUyaRTL_fade 6400ms linear 0ms infinite;}.vsUyaRTL_40{stroke-dasharray:217 219;stroke-dashoffset:218;animation:vsUyaRTL_draw_40 6400ms ease-in-out 0ms infinite,vsUyaRTL_fade 6400ms linear 0ms infinite;}.vsUyaRTL_41{stroke-dasharray:419 421;stroke-dashoffset:420;animation:vsUyaRTL_draw_41 6400ms ease-in-out 0ms infinite,vsUyaRTL_fade 6400ms linear 0ms infinite;}.vsUyaRTL_42{stroke-dasharray:248 250;stroke-dashoffset:249;animation:vsUyaRTL_draw_42 6400ms ease-in-out 0ms infinite,vsUyaRTL_fade 6400ms linear 0ms infinite;}.vsUyaRTL_43{stroke-dasharray:498 500;stroke-dashoffset:499;animation:vsUyaRTL_draw_43 6400ms ease-in-out 0ms infinite,vsUyaRTL_fade 6400ms linear 0ms infinite;}.vsUyaRTL_44{stroke-dasharray:211 213;stroke-dashoffset:212;animation:vsUyaRTL_draw_44 6400ms ease-in-out 0ms infinite,vsUyaRTL_fade 6400ms linear 0ms infinite;}.vsUyaRTL_45{stroke-dasharray:401 403;stroke-dashoffset:402;animation:vsUyaRTL_draw_45 6400ms ease-in-out 0ms infinite,vsUyaRTL_fade 6400ms linear 0ms infinite;}.vsUyaRTL_46{stroke-dasharray:168 170;stroke-dashoffset:169;animation:vsUyaRTL_draw_46 6400ms ease-in-out 0ms infinite,vsUyaRTL_fade 6400ms linear 0ms infinite;}.vsUyaRTL_47{stroke-dasharray:332 334;stroke-dashoffset:333;animation:vsUyaRTL_draw_47 6400ms ease-in-out 0ms infinite,vsUyaRTL_fade 6400ms linear 0ms infinite;}.vsUyaRTL_48{stroke-dasharray:176 178;stroke-dashoffset:177;animation:vsUyaRTL_draw_48 6400ms ease-in-out 0ms infinite,vsUyaRTL_fade 6400ms linear 0ms infinite;}.vsUyaRTL_49{stroke-dasharray:351 353;stroke-dashoffset:352;animation:vsUyaRTL_draw_49 6400ms ease-in-out 0ms infinite,vsUyaRTL_fade 6400ms linear 0ms infinite;}.vsUyaRTL_50{stroke-dasharray:217 219;stroke-dashoffset:218;animation:vsUyaRTL_draw_50 6400ms ease-in-out 0ms infinite,vsUyaRTL_fade 6400ms linear 0ms infinite;}.vsUyaRTL_51{stroke-dasharray:419 421;stroke-dashoffset:420;animation:vsUyaRTL_draw_51 6400ms ease-in-out 0ms infinite,vsUyaRTL_fade 6400ms linear 0ms infinite;}@keyframes vsUyaRTL_draw{100%{stroke-dashoffset:0;}}@keyframes vsUyaRTL_fade{0%{stroke-opacity:1;}93.75%{stroke-opacity:1;}100%{stroke-opacity:0;}}@keyframes vsUyaRTL_draw_0{0%{stroke-dashoffset: 403}31.25%{ stroke-dashoffset: 0;}100%{ stroke-dashoffset: 0;}}@keyframes vsUyaRTL_draw_1{0.30637254901960786%{stroke-dashoffset: 799}31.556372549019606%{ stroke-dashoffset: 0;}100%{ stroke-dashoffset: 0;}}@keyframes vsUyaRTL_draw_2{0.6127450980392157%{stroke-dashoffset: 218}31.862745098039213%{ stroke-dashoffset: 0;}100%{ stroke-dashoffset: 0;}}@keyframes vsUyaRTL_draw_3{0.9191176470588236%{stroke-dashoffset: 420}32.169117647058826%{ stroke-dashoffset: 0;}100%{ stroke-dashoffset: 0;}}@keyframes vsUyaRTL_draw_4{1.2254901960784315%{stroke-dashoffset: 170}32.47549019607843%{ stroke-dashoffset: 0;}100%{ stroke-dashoffset: 0;}}@keyframes vsUyaRTL_draw_5{1.5318627450980393%{stroke-dashoffset: 337}32.78186274509804%{ stroke-dashoffset: 0;}100%{ stroke-dashoffset: 0;}}@keyframes vsUyaRTL_draw_6{1.8382352941176472%{stroke-dashoffset: 170}33.088235294117645%{ stroke-dashoffset: 0;}100%{ stroke-dashoffset: 0;}}@keyframes vsUyaRTL_draw_7{2.144607843137255%{stroke-dashoffset: 337}33.39460784313725%{ stroke-dashoffset: 0;}100%{ stroke-dashoffset: 0;}}@keyframes vsUyaRTL_draw_8{2.450980392156863%{stroke-dashoffset: 198}33.700980392156865%{ stroke-dashoffset: 0;}100%{ stroke-dashoffset: 0;}}@keyframes vsUyaRTL_draw_9{2.757352941176471%{stroke-dashoffset: 394}34.00735294117647%{ stroke-dashoffset: 0;}100%{ stroke-dashoffset: 0;}}@keyframes vsUyaRTL_draw_10{3.0637254901960786%{stroke-dashoffset: 219}34.31372549019608%{ stroke-dashoffset: 0;}100%{ stroke-dashoffset: 0;}}@keyframes vsUyaRTL_draw_11{3.3700980392156863%{stroke-dashoffset: 426}34.620098039215684%{ stroke-dashoffset: 0;}100%{ stroke-dashoffset: 0;}}@keyframes vsUyaRTL_draw_12{3.6764705882352944%{stroke-dashoffset: 245}34.9264705882353%{ stroke-dashoffset: 0;}100%{ stroke-dashoffset: 0;}}@keyframes vsUyaRTL_draw_13{3.9828431372549025%{stroke-dashoffset: 459}35.2328431372549%{ stroke-dashoffset: 0;}100%{ stroke-dashoffset: 0;}}@keyframes vsUyaRTL_draw_14{4.28921568627451%{stroke-dashoffset: 260}35.53921568627451%{ stroke-dashoffset: 0;}100%{ stroke-dashoffset: 0;}}@keyframes vsUyaRTL_draw_15{4.595588235294118%{stroke-dashoffset: 521}35.845588235294116%{ stroke-dashoffset: 0;}100%{ stroke-dashoffset: 0;}}@keyframes vsUyaRTL_draw_16{4.901960784313726%{stroke-dashoffset: 300}36.15196078431373%{ stroke-dashoffset: 0;}100%{ stroke-dashoffset: 0;}}@keyframes vsUyaRTL_draw_17{5.208333333333334%{stroke-dashoffset: 535}36.458333333333336%{ stroke-dashoffset: 0;}100%{ stroke-dashoffset: 0;}}@keyframes vsUyaRTL_draw_18{5.514705882352942%{stroke-dashoffset: 218}36.76470588235294%{ stroke-dashoffset: 0;}100%{ stroke-dashoffset: 0;}}@keyframes vsUyaRTL_draw_19{5.821078431372549%{stroke-dashoffset: 420}37.07107843137255%{ stroke-dashoffset: 0;}100%{ stroke-dashoffset: 0;}}@keyframes vsUyaRTL_draw_20{6.127450980392157%{stroke-dashoffset: 170}37.377450980392155%{ stroke-dashoffset: 0;}100%{ stroke-dashoffset: 0;}}@keyframes vsUyaRTL_draw_21{6.433823529411765%{stroke-dashoffset: 337}37.68382352941177%{ stroke-dashoffset: 0;}100%{ stroke-dashoffset: 0;}}@keyframes vsUyaRTL_draw_22{6.740196078431373%{stroke-dashoffset: 187}37.990196078431374%{ stroke-dashoffset: 0;}100%{ stroke-dashoffset: 0;}}@keyframes vsUyaRTL_draw_23{7.046568627450981%{stroke-dashoffset: 372}38.29656862745098%{ stroke-dashoffset: 0;}100%{ stroke-dashoffset: 0;}}@keyframes vsUyaRTL_draw_24{7.352941176470589%{stroke-dashoffset: 198}38.60294117647059%{ stroke-dashoffset: 0;}100%{ stroke-dashoffset: 0;}}@keyframes vsUyaRTL_draw_25{7.659313725490197%{stroke-dashoffset: 394}38.90931372549019%{ stroke-dashoffset: 0;}100%{ stroke-dashoffset: 0;}}@keyframes vsUyaRTL_draw_26{7.965686274509805%{stroke-dashoffset: 324}39.21568627450981%{ stroke-dashoffset: 0;}100%{ stroke-dashoffset: 0;}}@keyframes vsUyaRTL_draw_27{8.272058823529413%{stroke-dashoffset: 638}39.52205882352941%{ stroke-dashoffset: 0;}100%{ stroke-dashoffset: 0;}}@keyframes vsUyaRTL_draw_28{8.57843137254902%{stroke-dashoffset: 218}39.82843137254902%{ stroke-dashoffset: 0;}100%{ stroke-dashoffset: 0;}}@keyframes vsUyaRTL_draw_29{8.884803921568627%{stroke-dashoffset: 420}40.134803921568626%{ stroke-dashoffset: 0;}100%{ stroke-dashoffset: 0;}}@keyframes vsUyaRTL_draw_30{9.191176470588236%{stroke-dashoffset: 177}40.44117647058823%{ stroke-dashoffset: 0;}100%{ stroke-dashoffset: 0;}}@keyframes vsUyaRTL_draw_31{9.497549019607844%{stroke-dashoffset: 352}40.747549019607845%{ stroke-dashoffset: 0;}100%{ stroke-dashoffset: 0;}}@keyframes vsUyaRTL_draw_32{9.803921568627452%{stroke-dashoffset: 198}41.05392156862745%{ stroke-dashoffset: 0;}100%{ stroke-dashoffset: 0;}}@keyframes vsUyaRTL_draw_33{10.11029411764706%{stroke-dashoffset: 394}41.36029411764706%{ stroke-dashoffset: 0;}100%{ stroke-dashoffset: 0;}}@keyframes vsUyaRTL_draw_34{10.416666666666668%{stroke-dashoffset: 324}41.66666666666667%{ stroke-dashoffset: 0;}100%{ stroke-dashoffset: 0;}}@keyframes vsUyaRTL_draw_35{10.723039215686276%{stroke-dashoffset: 638}41.97303921568628%{ stroke-dashoffset: 0;}100%{ stroke-dashoffset: 0;}}@keyframes vsUyaRTL_draw_36{11.029411764705884%{stroke-dashoffset: 227}42.279411764705884%{ stroke-dashoffset: 0;}100%{ stroke-dashoffset: 0;}}@keyframes vsUyaRTL_draw_37{11.33578431372549%{stroke-dashoffset: 448}42.58578431372549%{ stroke-dashoffset: 0;}100%{ stroke-dashoffset: 0;}}@keyframes vsUyaRTL_draw_38{11.642156862745098%{stroke-dashoffset: 300}42.8921568627451%{ stroke-dashoffset: 0;}100%{ stroke-dashoffset: 0;}}@keyframes vsUyaRTL_draw_39{11.948529411764707%{stroke-dashoffset: 535}43.19852941176471%{ stroke-dashoffset: 0;}100%{ stroke-dashoffset: 0;}}@keyframes vsUyaRTL_draw_40{12.254901960784315%{stroke-dashoffset: 218}43.504901960784316%{ stroke-dashoffset: 0;}100%{ stroke-dashoffset: 0;}}@keyframes vsUyaRTL_draw_41{12.561274509803921%{stroke-dashoffset: 420}43.81127450980392%{ stroke-dashoffset: 0;}100%{ stroke-dashoffset: 0;}}@keyframes vsUyaRTL_draw_42{12.86764705882353%{stroke-dashoffset: 249}44.11764705882353%{ stroke-dashoffset: 0;}100%{ stroke-dashoffset: 0;}}@keyframes vsUyaRTL_draw_43{13.174019607843137%{stroke-dashoffset: 499}44.424019607843135%{ stroke-dashoffset: 0;}100%{ stroke-dashoffset: 0;}}@keyframes vsUyaRTL_draw_44{13.480392156862745%{stroke-dashoffset: 212}44.73039215686275%{ stroke-dashoffset: 0;}100%{ stroke-dashoffset: 0;}}@keyframes vsUyaRTL_draw_45{13.786764705882353%{stroke-dashoffset: 402}45.036764705882355%{ stroke-dashoffset: 0;}100%{ stroke-dashoffset: 0;}}@keyframes vsUyaRTL_draw_46{14.093137254901961%{stroke-dashoffset: 169}45.34313725490196%{ stroke-dashoffset: 0;}100%{ stroke-dashoffset: 0;}}@keyframes vsUyaRTL_draw_47{14.39950980392157%{stroke-dashoffset: 333}45.64950980392157%{ stroke-dashoffset: 0;}100%{ stroke-dashoffset: 0;}}@keyframes vsUyaRTL_draw_48{14.705882352941178%{stroke-dashoffset: 177}45.955882352941174%{ stroke-dashoffset: 0;}100%{ stroke-dashoffset: 0;}}@keyframes vsUyaRTL_draw_49{15.012254901960787%{stroke-dashoffset: 352}46.26225490196079%{ stroke-dashoffset: 0;}100%{ stroke-dashoffset: 0;}}@keyframes vsUyaRTL_draw_50{15.318627450980394%{stroke-dashoffset: 218}46.568627450980394%{ stroke-dashoffset: 0;}100%{ stroke-dashoffset: 0;}}@keyframes vsUyaRTL_draw_51{15.625000000000004%{stroke-dashoffset: 420}46.875%{ stroke-dashoffset: 0;}100%{ stroke-dashoffset: 0;}}</style></svg>
